<svg version="1.1" id="Layer_1" xmlns="http://www.w3.org/2000/svg" xmlns:xlink="http://www.w3.org/1999/xlink" x="0px" y="0px"
	 width="100%" viewBox="0 0 1120 1120" enable-background="new 0 0 1120 1120" xml:space="preserve">
<path fill="#000000" opacity="1.000000" stroke="none" 
	d="
M1121.000000,384.000000 
	C1121.000000,629.972595 1121.000000,875.445251 1121.000000,1120.917847 
	C1120.860718,1120.945190 1120.721436,1120.996582 1120.582153,1120.996582 
	C747.457092,1121.000000 374.332062,1121.000000 1.000000,1121.000000 
	C1.000000,934.423218 1.000000,747.846313 1.000000,561.269470 
	C1.000000,374.623627 1.000000,187.977783 1.000000,1.165970 
	C374.333282,1.165970 747.666626,1.165970 1121.000000,1.165970 
	C1121.000000,128.528732 1121.000000,256.014374 1121.000000,384.000000 
M285.305969,149.723923 
	C285.508942,149.599564 285.617371,149.418564 285.759949,148.394058 
	C285.830170,147.867203 285.900360,147.340332 286.503387,146.450607 
	C287.650787,144.619186 288.798218,142.787766 290.481842,140.546555 
	C294.957855,133.980301 299.283295,127.305191 303.938080,120.868225 
	C317.832489,101.654076 333.443695,84.030899 353.017212,70.376648 
	C359.123108,66.117271 366.018555,63.002796 372.260223,58.917614 
	C374.342407,57.554832 375.513641,54.800320 377.101318,52.682018 
	C374.779663,51.781918 372.403687,49.993374 370.145477,50.131351 
	C358.728271,50.828949 347.199951,51.230946 335.975830,53.227520 
	C316.589325,56.676033 297.285156,60.764809 278.167053,65.479500 
	C266.329010,68.398857 254.750320,72.578262 243.320892,76.895386 
	C227.720947,82.787773 212.153961,88.868187 196.994873,95.792000 
	C186.666016,100.509628 177.059296,106.808311 166.603760,112.613457 
	C157.864899,118.915924 148.982315,125.029961 140.418762,131.562256 
	C125.186775,143.181259 112.001877,157.052994 100.705109,172.338409 
	C87.115509,190.726227 75.059525,210.280960 66.897659,231.815308 
	C61.970505,244.815186 56.996689,257.944489 53.862617,271.438049 
	C50.271038,286.901367 47.692142,302.759430 46.538620,318.582001 
	C45.505302,332.755768 46.508667,347.148987 47.504585,361.383026 
	C48.975201,382.401733 53.725250,402.833435 62.461372,422.036469 
	C74.702446,448.943726 93.389702,471.140381 116.389366,489.296539 
	C132.584076,502.080841 149.900650,513.539551 167.304871,524.669800 
	C185.408966,536.247742 204.169342,546.807129 222.738007,557.648682 
	C238.732376,566.987183 254.793884,576.215332 270.945984,585.277832 
	C293.336792,597.840576 315.894928,610.105286 338.278198,622.681274 
	C356.333588,632.825684 374.254486,643.210327 392.201843,653.545959 
	C416.197174,667.364441 440.230835,681.118591 464.116821,695.124146 
	C486.138428,708.036499 508.044342,721.148865 529.896545,734.346497 
	C556.779297,750.582336 582.744507,768.125671 605.551208,789.897705 
	C620.690979,804.350525 632.263489,820.574768 632.490417,842.888672 
	C632.605713,854.224487 631.802368,865.044006 625.790833,874.935181 
	C623.296753,879.038757 620.711792,883.087280 617.650391,887.503601 
	C617.087891,888.330322 616.525452,889.156982 615.322693,890.205261 
	C613.923157,891.365845 612.480530,892.478699 611.130676,893.694458 
	C599.949646,903.764709 587.292053,911.637207 573.323730,916.963806 
	C556.225403,923.483948 538.579224,928.498657 520.131287,929.107910 
	C500.251099,929.764404 480.291260,930.829102 460.472687,929.753479 
	C439.808624,928.631958 419.589233,923.833130 399.914124,916.994568 
	C379.700287,909.968872 360.944672,900.217957 343.278320,888.241394 
	C329.071808,878.610352 315.992065,867.523987 304.951355,854.492737 
	C295.045471,842.801025 285.676208,830.433899 277.736816,817.353149 
	C268.013397,801.333191 261.711273,783.752502 257.459412,765.268616 
	C253.065918,746.169250 249.622452,726.982727 246.760193,707.631653 
	C246.368805,704.985535 244.051346,701.572510 241.700623,700.447632 
	C230.670227,695.169189 219.073090,691.054565 208.138565,685.601440 
	C193.819855,678.460693 179.267899,671.444153 166.036621,662.557251 
	C150.989792,652.450867 136.743652,640.955261 123.168648,628.914551 
	C111.462837,618.531677 101.372704,606.348755 90.214706,595.319336 
	C82.692551,587.883850 75.063126,580.369873 66.538239,574.193054 
	C59.306660,568.953308 51.282627,572.028259 47.829056,580.233215 
	C46.323692,583.809753 45.359875,587.887939 45.303455,591.755127 
	C44.990017,613.239136 45.005989,634.728210 44.971561,656.215759 
	C44.964634,660.537292 45.226879,664.859253 45.329693,669.828491 
	C45.380917,670.473938 45.432140,671.119324 45.276169,672.721619 
	C45.442787,677.412292 45.609402,682.102905 45.502880,687.449219 
	C45.669022,689.607117 45.835163,691.765015 46.113564,694.457642 
	C46.161114,694.633423 46.208660,694.809204 46.161819,695.901917 
	C46.496868,699.890686 46.831913,703.879517 47.318619,708.828918 
	C47.443600,709.464783 47.568584,710.100708 47.605473,711.322021 
	C47.743832,712.540527 47.882195,713.758972 48.099236,715.648804 
	C48.175663,716.092773 48.252090,716.536682 48.247375,717.816833 
	C48.513016,720.201233 48.778652,722.585632 49.077614,725.779358 
	C49.150082,726.855957 49.222553,727.932556 49.191170,729.763855 
	C49.447826,731.181213 49.704483,732.598572 50.096748,734.968445 
	C50.304001,736.883545 50.511253,738.798645 50.567539,741.157776 
	C50.701569,741.769531 50.835594,742.381348 50.950623,743.025818 
	C50.950623,743.025818 50.988461,743.036194 51.035141,743.910095 
	C51.129803,745.405212 51.077618,746.926758 51.341496,748.391418 
	C54.542343,766.157898 57.273739,784.030029 61.168911,801.644348 
	C65.135399,819.581055 69.371094,837.554993 75.119583,854.974426 
	C81.180672,873.341248 88.578415,891.336060 96.474144,909.010010 
	C105.288689,928.740601 117.470047,946.553345 130.449219,963.842041 
	C144.581726,982.667175 160.365143,999.948059 179.673859,1013.339844 
	C197.189270,1025.487793 215.424561,1036.744629 234.093460,1047.031494 
	C246.765427,1054.013916 260.616302,1058.947510 274.171204,1064.200684 
	C281.532410,1067.053589 289.377106,1068.658936 297.676544,1071.118530 
	C299.362000,1071.808960 300.988678,1072.784424 302.741943,1073.145874 
	C321.064484,1076.922485 339.314240,1081.185181 357.773468,1084.124512 
	C372.984741,1086.546631 388.420471,1088.047119 403.811279,1088.734253 
	C424.743622,1089.668823 445.790253,1090.564087 466.673004,1089.405762 
	C489.124420,1088.160400 511.507996,1084.970703 533.795471,1081.757446 
	C547.541992,1079.775635 561.200867,1076.720215 574.638062,1073.161377 
	C597.883484,1067.004517 620.426270,1058.720215 642.425598,1048.947388 
	C659.725830,1041.262085 676.301453,1032.194946 691.581482,1021.143860 
	C706.467773,1010.377563 720.521729,998.389404 732.150818,983.993469 
	C740.141541,974.101440 748.238831,964.184509 755.066650,953.497986 
	C760.908752,944.354248 766.221436,934.496155 769.582520,924.237854 
	C773.840820,911.241028 776.312805,897.597778 778.792908,884.093262 
	C782.895691,861.752441 782.463135,839.263000 777.135376,817.239197 
	C772.499084,798.074402 763.744507,780.640015 751.660339,764.812866 
	C738.767151,747.926208 723.974182,733.099121 707.308594,719.990601 
	C680.753540,699.103638 651.619751,682.160706 622.759155,664.859375 
	C602.300659,652.594849 581.049622,641.659668 560.291443,629.885803 
	C535.303589,615.713135 510.476593,601.257080 485.548370,586.978882 
	C480.108582,583.863098 474.535187,580.980774 468.638855,577.428162 
	C468.413361,577.183167 468.229156,576.871643 467.956543,576.702698 
	C449.519043,565.277405 430.915405,554.110352 412.685760,542.362915 
	C400.298279,534.380188 388.223114,525.869629 376.387787,517.083923 
	C360.456177,505.257385 344.521118,493.382904 329.264984,480.713196 
	C312.140717,466.492065 296.493652,450.586670 284.039429,432.047241 
	C276.396057,420.669220 270.080933,408.384460 263.397156,396.380035 
	C255.626389,382.423340 250.359619,367.478180 246.559616,351.457306 
	C246.302917,351.022980 246.046204,350.588623 245.712433,349.337677 
	C245.583130,348.808441 245.453842,348.279236 245.399109,347.004700 
	C244.491165,341.444885 243.051178,335.910614 242.782593,330.320068 
	C242.165161,317.468781 241.418091,304.556488 242.034561,291.731964 
	C242.661179,278.695953 244.244263,265.625183 246.547058,252.773682 
	C248.762329,240.410736 252.434494,228.308823 255.695999,215.357742 
	C255.788467,214.854034 255.880951,214.350311 256.426331,213.371536 
	C256.920837,211.913849 257.415375,210.456146 257.982544,208.976685 
	C257.982544,208.976685 257.993591,208.901642 258.272766,208.666077 
	C258.304352,208.333572 258.335968,208.001083 258.621307,206.856781 
	C260.942627,201.028412 263.089508,195.122986 265.623169,189.388412 
	C270.289185,178.827469 275.182526,168.366959 280.442352,157.503387 
	C281.118073,156.353195 281.793823,155.202988 282.740875,153.441360 
	C282.818176,153.232193 282.895447,153.023041 283.443390,152.463455 
	C283.915375,151.632263 284.387329,150.801056 284.957611,149.953262 
	C284.957611,149.953262 285.011139,149.869202 285.305969,149.723923 
M495.304321,273.715302 
	C495.503998,273.577698 495.598114,273.387756 495.740234,272.464752 
	C495.802216,272.240570 495.864166,272.016388 496.412964,271.457336 
	C496.931122,270.634186 497.449280,269.811035 498.519257,268.607819 
	C500.731842,265.725922 502.677612,262.582825 505.201019,260.005249 
	C519.746094,245.147858 537.125977,235.055161 556.861633,228.460297 
	C573.408264,222.931091 590.450745,219.804581 607.610046,218.865753 
	C626.450500,217.834915 645.449219,218.786102 664.335327,219.738663 
	C686.196960,220.841248 707.262512,226.157654 727.655762,234.096695 
	C746.714294,241.516113 765.119202,250.346558 780.939697,263.404907 
	C791.232605,271.900818 800.747437,281.453094 809.873169,291.221313 
	C822.166626,304.380188 831.615967,319.647675 839.280090,335.901642 
	C848.132263,354.675171 855.520752,374.041779 860.281128,394.296814 
	C863.503296,408.006775 866.548096,421.764954 869.302002,435.575409 
	C870.517578,441.671509 873.555481,445.948090 879.077881,448.490356 
	C895.623352,456.107025 912.342957,463.361969 928.722839,471.317566 
	C948.340698,480.845856 966.238159,493.098480 982.625549,507.507538 
	C1000.515869,523.237976 1016.057312,541.161743 1031.342407,559.359680 
	C1035.771484,564.632874 1040.966309,569.452576 1046.487549,573.572144 
	C1053.786987,579.018433 1065.125244,575.134033 1068.554077,566.791382 
	C1074.697754,551.842590 1074.895264,535.879883 1075.608154,520.223694 
	C1076.546753,499.605774 1075.830566,478.912140 1075.800659,458.251068 
	C1075.797363,455.920654 1075.820801,453.565063 1075.510742,451.264374 
	C1073.383545,435.477783 1071.470947,419.653778 1068.905518,403.937042 
	C1066.044922,386.411316 1063.460327,368.761475 1059.136475,351.572968 
	C1053.319702,328.450165 1046.140991,305.660126 1039.198730,282.833130 
	C1032.655151,261.317200 1022.858948,241.189468 1011.878906,221.624039 
	C999.162537,198.964767 983.822266,178.223541 965.609985,159.705215 
	C947.742004,141.536926 927.576721,126.263634 905.285828,113.889839 
	C895.915588,108.688347 886.572327,103.312569 876.766113,99.053596 
	C864.335754,93.654900 851.563660,88.967751 838.722107,84.612801 
	C826.198730,80.365707 813.589478,76.022888 800.681702,73.339745 
	C781.363831,69.324135 761.834167,66.023117 742.241638,63.718636 
	C722.657410,61.415142 702.901001,59.932217 683.190613,59.529015 
	C664.287415,59.142326 645.327515,60.275990 626.428894,61.369457 
	C614.344849,62.068634 602.273193,63.548508 590.294250,65.336777 
	C578.160095,67.148224 566.064575,69.409134 554.103210,72.135872 
	C541.501465,75.008606 528.953247,78.262344 516.613892,82.097122 
	C505.100861,85.675102 493.553009,89.499985 482.637939,94.550629 
	C469.422791,100.665550 456.856415,108.182564 443.333344,115.184021 
	C441.955261,116.180550 440.577179,117.177071 439.146515,118.174210 
	C439.146515,118.174210 439.141052,118.226570 438.527679,118.260017 
	C437.795929,118.917870 437.064178,119.575722 436.275024,120.245071 
	C436.275024,120.245071 436.244537,120.295074 435.521545,120.346176 
	C428.176483,125.664207 420.714691,130.829239 413.507782,136.328323 
	C389.713623,154.484024 371.273956,177.192352 356.533051,203.138977 
	C342.647614,227.579758 335.356110,253.923218 333.463074,281.760040 
	C331.306732,313.468323 338.670624,343.274261 352.984772,371.467621 
	C362.485077,390.179596 375.188446,406.547485 391.380585,419.783844 
	C404.669830,430.647156 418.611328,440.803650 432.883423,450.346588 
	C445.928864,459.069366 459.725067,466.688507 473.337555,474.538940 
	C487.954407,482.968597 502.677216,491.221191 517.491089,499.299225 
	C522.813049,502.201355 528.534607,504.370728 534.717224,506.967316 
	C535.496521,507.316040 536.275879,507.664764 537.392761,508.591156 
	C541.457642,511.323212 545.360352,514.343567 549.615112,516.738159 
	C569.665771,528.022827 589.902161,538.979187 609.899475,550.356262 
	C628.295532,560.822266 646.545410,571.551392 664.720459,582.397827 
	C678.675659,590.725891 692.582336,599.158447 706.204468,608.015320 
	C721.316833,617.841064 736.330627,627.858459 750.916199,638.441589 
	C761.886475,646.401550 772.314758,655.151428 782.607727,663.988281 
	C791.028442,671.217834 798.893250,679.094971 807.529541,687.151001 
	C809.697449,689.865295 811.904053,692.549683 814.025696,695.299622 
	C819.596802,702.520569 825.801453,709.360535 830.528687,717.100464 
	C838.360962,729.924500 845.730896,743.091309 852.335632,756.583679 
	C856.804565,765.713074 860.391968,775.445007 863.002747,785.271729 
	C866.653809,799.014221 869.027649,813.096069 871.979492,827.964539 
	C871.861206,842.782898 871.742920,857.601257 871.399841,873.382202 
	C871.295166,875.275208 871.190491,877.168213 870.665710,879.686462 
	C869.521240,885.190857 868.153992,890.659851 867.271423,896.205933 
	C863.703918,918.625122 857.145996,940.138184 848.086853,960.921265 
	C837.383301,985.476746 824.750671,1008.891724 808.468628,1030.299316 
	C792.914795,1050.749390 774.288147,1067.521362 751.846436,1080.083008 
	C748.823364,1081.775146 744.318481,1083.366089 745.575439,1087.885986 
	C746.813354,1092.337891 751.416565,1090.791138 754.677185,1090.881958 
	C773.744812,1091.412842 792.397766,1088.099976 810.979553,1084.366821 
	C820.253723,1082.503662 829.673828,1081.006714 838.671692,1078.201782 
	C858.733582,1071.947632 878.803833,1065.583740 898.423157,1058.092529 
	C912.615234,1052.673584 926.548340,1046.185547 939.771790,1038.713867 
	C959.128784,1027.776245 977.244690,1014.970642 993.520264,999.527039 
	C1008.311951,985.491333 1021.626892,970.277954 1032.651245,953.270325 
	C1045.029297,934.174316 1054.638184,913.737549 1061.479736,891.792053 
	C1068.368530,869.695312 1071.400269,847.101562 1073.529663,824.344299 
	C1075.475830,803.544617 1073.123047,782.655701 1068.073608,762.563782 
	C1064.229492,747.267517 1058.180176,732.184387 1050.872192,718.174927 
	C1038.056885,693.608337 1018.874390,673.922791 997.449463,656.610291 
	C968.470642,633.193848 936.962524,613.432861 904.842468,594.712463 
	C877.197510,578.600220 849.141663,563.189697 821.192566,547.603210 
	C790.363403,530.410645 759.449646,513.369812 728.571289,496.265564 
	C704.476257,482.918762 680.340088,469.645721 656.293640,456.211975 
	C631.883606,442.575104 607.461914,428.953156 583.245117,414.978577 
	C572.338806,408.684998 561.842407,401.665771 551.291687,394.774231 
	C528.619995,379.965332 507.176239,363.773132 493.738770,339.420532 
	C486.339203,326.010315 482.147034,311.814117 486.443634,296.377319 
	C488.170502,290.173065 490.411987,284.112030 492.717621,277.422943 
	C492.795715,277.225433 492.873779,277.027924 493.408569,276.453217 
	C493.892670,275.627716 494.376770,274.802216 494.955841,273.950470 
	C494.955841,273.950470 495.010437,273.868500 495.304321,273.715302 
z"/>
<path fill="#004692" opacity="1.000000" stroke="none" 
	d="
M537.055176,508.013489 
	C536.275879,507.664764 535.496521,507.316040 534.215942,506.643005 
	C531.765869,504.806824 529.966553,503.033203 527.845886,501.822449 
	C497.336426,484.403717 466.631561,467.321259 436.294159,449.609039 
	C415.651825,437.557159 396.219269,423.441406 380.311646,405.591461 
	C343.186584,363.933441 329.389648,314.960449 339.066193,260.034485 
	C347.259186,213.529282 371.777802,176.132324 406.771576,145.218643 
	C414.615540,138.289215 422.941620,131.905518 431.332336,125.130051 
	C432.434967,124.338127 433.251007,123.686737 434.043121,123.029556 
	C434.019165,123.023766 434.014801,123.072853 434.257507,123.006088 
	C435.110443,122.241257 435.720642,121.543198 436.336243,120.703384 
	C436.341644,120.561638 436.244537,120.295074 436.244537,120.295074 
	C436.244537,120.295074 436.275024,120.245071 436.616425,120.229614 
	C437.685577,119.551613 438.413300,118.889084 439.141052,118.226562 
	C439.141052,118.226570 439.146515,118.174210 439.441467,118.230820 
	C440.101471,118.268860 440.466461,118.250275 441.057587,118.221390 
	C441.883606,117.823341 442.483551,117.435585 443.057434,117.060738 
	C443.031403,117.073639 443.068878,117.120132 443.434204,117.059868 
	C445.466187,116.265251 447.230530,115.695282 448.784729,114.771713 
	C469.360352,102.544876 491.226746,93.296974 513.861877,85.586281 
	C552.493896,72.426247 592.437256,65.454239 632.884888,63.368225 
	C680.139099,60.931179 727.471497,61.935047 774.346375,70.568451 
	C818.067383,78.620972 860.023254,91.381645 899.073059,113.124931 
	C941.443542,136.717148 975.820190,168.697815 1001.800964,209.594589 
	C1021.334412,240.342484 1034.801270,273.824493 1045.040161,308.648621 
	C1054.921021,342.255188 1062.291992,376.426605 1067.551880,411.062439 
	C1073.855835,452.574860 1076.110107,494.222717 1071.743530,536.071411 
	C1070.864868,544.493225 1069.840576,553.023438 1067.604248,561.151733 
	C1064.035278,574.123291 1052.347778,576.910461 1042.757812,567.372864 
	C1036.625977,561.274536 1030.739990,554.872253 1025.267456,548.178101 
	C1006.298950,524.975037 985.493469,503.726562 960.540039,486.909363 
	C936.246399,470.536835 909.968079,457.957672 882.741333,447.320892 
	C877.177368,445.147217 873.544983,441.938416 872.464111,435.709229 
	C867.929016,409.575073 861.282654,383.986420 852.154602,359.052124 
	C837.615356,319.336853 815.101929,285.213806 780.792908,259.935150 
	C750.924194,237.928085 717.291931,224.538040 680.538635,218.788803 
	C652.008057,214.325836 623.474426,213.863342 594.895264,217.453461 
	C568.179565,220.809479 542.520935,227.610199 520.205444,243.568100 
	C510.571869,250.457108 501.419098,257.972717 495.576843,269.053101 
	C493.555542,272.513367 491.784607,275.758179 490.004395,279.000854 
	C489.995117,278.998779 490.007843,279.013580 489.783020,279.245239 
	C489.063690,280.652771 488.569153,281.828674 487.871613,283.290588 
	C481.957397,295.810120 480.646851,308.525421 483.994934,321.578156 
	C489.428162,342.759979 502.529907,358.930054 518.362244,373.228516 
	C537.162537,390.207367 558.616211,403.443481 580.454773,415.911072 
	C622.260681,439.777924 664.427063,463.014526 706.494385,486.421906 
	C755.549988,513.717712 804.883545,540.523071 853.668396,568.293213 
	C887.098755,587.323059 920.090454,607.168518 952.733948,627.522156 
	C979.791443,644.392822 1004.967285,663.827148 1026.407104,687.753601 
	C1050.178101,714.281677 1063.776123,745.437439 1068.795532,780.428345 
	C1073.125854,810.614807 1070.628662,840.514771 1064.373413,870.270874 
	C1056.032959,909.945862 1038.454346,945.113770 1012.529724,975.965881 
	C981.868103,1012.455383 943.062073,1037.789673 899.240540,1055.794189 
	C869.856567,1067.866821 839.423889,1076.546509 808.260071,1082.371948 
	C791.436707,1085.516724 774.318359,1087.139404 757.290710,1089.075806 
	C754.690308,1089.371460 751.859863,1087.643677 749.135864,1086.851929 
	C750.995667,1084.934448 752.532715,1082.439453 754.766357,1081.190552 
	C772.713379,1071.156738 788.645203,1058.489258 801.823914,1042.858521 
	C834.056030,1004.628845 855.611938,960.885681 866.842834,912.146912 
	C868.736755,903.927979 869.681519,895.490295 871.265991,886.851929 
	C872.279907,881.038635 873.092712,875.526978 873.953979,869.561768 
	C874.049561,865.530151 874.096741,861.952026 874.333679,858.031128 
	C874.394165,850.343994 874.264954,842.999573 874.166443,835.227905 
	C874.105225,832.203796 874.013306,829.607117 873.933411,826.556030 
	C871.698425,814.046570 870.114624,801.821350 867.074890,789.969543 
	C859.258179,759.491943 845.232849,731.849243 826.465881,706.692993 
	C820.638733,698.881775 813.612793,691.964905 806.978394,684.355347 
	C794.604553,669.634094 780.310791,657.464417 765.363586,645.992981 
	C730.955200,619.585632 694.182617,596.713196 656.911255,574.727112 
	C619.356873,552.574097 581.070312,531.661682 543.071594,510.264221 
	C541.228210,509.226135 539.067932,508.750854 537.055176,508.013489 
z"/>
<path fill="#004793" opacity="1.000000" stroke="none" 
	d="
M45.483368,671.764771 
	C45.432140,671.119324 45.380917,670.473938 45.584309,669.213501 
	C46.185654,666.159973 46.822220,663.722717 46.832790,661.282715 
	C46.910023,643.453125 46.714848,625.621277 46.926201,607.793945 
	C47.008907,600.817749 47.348015,593.750305 48.568291,586.902222 
	C50.861053,574.035461 60.717300,570.775574 70.311592,579.757446 
	C78.929558,587.825378 87.154388,596.343750 95.176460,605.011536 
	C114.587570,625.984985 135.277512,645.466614 159.016068,661.538391 
	C183.011124,677.783875 209.266403,689.668457 235.718643,701.125122 
	C241.243439,703.517944 243.711319,706.960754 244.823532,712.889648 
	C249.088196,735.623474 252.503021,758.662964 258.908051,780.815491 
	C269.176086,816.328674 289.809906,845.747559 317.163116,870.653992 
	C347.808899,898.558411 383.316284,917.139343 423.468475,926.559082 
	C460.372070,935.216736 497.799652,935.839539 535.167725,930.012329 
	C560.080872,926.127319 583.806824,918.336609 604.244385,902.835938 
	C609.210815,899.069153 613.412109,894.293457 617.984375,889.985840 
	C618.003479,889.989868 617.980225,889.968018 618.242798,889.814575 
	C619.268127,888.748047 620.030823,887.835083 621.030945,886.684204 
	C630.319580,875.957947 634.901733,863.708252 635.612244,849.946960 
	C636.951904,824.001648 624.744629,804.028137 606.838867,787.095459 
	C589.374756,770.580627 570.089661,756.190308 549.594666,743.663330 
	C518.758545,724.815491 487.630737,706.436829 456.426208,688.202271 
	C417.166626,665.260803 377.792206,642.512329 338.303497,619.967590 
	C304.457977,600.644775 270.217010,582.011780 236.451065,562.552917 
	C198.503860,540.684387 160.246841,519.268372 125.210846,492.731140 
	C99.729736,473.431000 78.282204,450.692047 65.154106,421.153687 
	C51.180702,389.713318 47.722095,356.551361 49.491611,322.458954 
	C51.571178,282.393066 61.313564,244.764206 80.581123,209.319046 
	C96.738518,179.595459 117.203087,153.791672 143.362991,132.472168 
	C151.093811,126.171799 159.160629,120.283760 167.437134,114.123299 
	C170.479004,112.723183 173.272171,111.597038 175.817810,110.060730 
	C204.254898,92.898834 235.062958,81.244179 266.563599,71.335526 
	C292.655518,63.128231 319.434326,57.758411 346.479187,53.808907 
	C353.704102,52.753811 361.045715,52.432190 368.348053,52.040581 
	C369.499268,51.978848 370.726746,53.339085 371.918945,54.041851 
	C371.226562,55.080883 370.650330,56.229847 369.804596,57.123772 
	C369.140564,57.825638 368.177429,58.279564 367.289154,58.729057 
	C346.709351,69.142975 329.805756,84.124313 315.352631,101.793198 
	C307.279297,111.662811 300.400146,122.509262 292.748260,133.074951 
	C292.045654,133.810608 291.577698,134.386871 291.070190,135.204254 
	C291.030701,135.445374 290.981110,135.931503 290.722107,136.141113 
	C288.961914,138.896912 287.460754,141.443085 285.982025,143.990417 
	C286.004456,143.991592 285.970703,143.953979 285.721619,144.172638 
	C283.612610,147.895721 281.752716,151.400131 279.650330,155.128204 
	C267.207092,174.880630 259.007294,196.154984 252.020981,218.364090 
	C251.074585,221.414246 250.038681,224.046204 249.326614,226.763016 
	C241.872940,255.202148 236.352859,283.944489 238.415070,313.520508 
	C239.174042,324.405762 241.463486,335.184296 243.053925,346.442505 
	C243.337479,349.014465 243.422638,351.204651 243.937302,353.288788 
	C249.004837,373.809418 257.538147,392.957581 267.681671,411.375549 
	C285.903320,444.461273 311.995697,470.703461 341.001709,494.273956 
	C370.904968,518.573608 403.079620,539.642212 435.711945,560.016541 
	C445.857727,566.351135 456.369141,572.100159 466.937775,578.369446 
	C469.188568,580.068970 471.111877,581.694031 473.256866,582.936096 
	C493.723663,594.787720 514.263794,606.513000 534.714294,618.392395 
	C580.787781,645.155884 627.011597,671.668457 672.796143,698.918335 
	C697.082947,713.373352 718.823730,731.320557 737.933472,752.247620 
	C750.598083,766.116516 761.152832,781.399353 768.145020,798.995056 
	C784.030518,838.970459 780.288818,879.087769 768.531067,919.030640 
	C762.523926,939.437622 750.762451,956.904175 737.509521,973.380188 
	C716.121948,999.969055 690.447266,1021.385803 660.198975,1037.143921 
	C629.492432,1053.140747 597.209778,1064.774170 563.492188,1072.967041 
	C524.399963,1082.466187 484.813110,1086.865601 444.741272,1087.149170 
	C426.447937,1087.278687 408.057098,1086.744629 389.866943,1084.936890 
	C368.370483,1082.800659 347.001953,1079.216064 325.661133,1075.747559 
	C316.001801,1074.177734 306.543182,1071.372925 296.660919,1068.981079 
	C292.256195,1067.362427 288.220917,1065.777954 284.106384,1064.436646 
	C231.419785,1047.261108 184.412186,1020.824036 146.745132,979.472290 
	C123.191513,953.614685 105.108864,924.113953 91.304825,892.067993 
	C74.196983,852.352356 64.050179,810.667603 57.381729,768.056274 
	C56.070957,759.680420 54.441715,751.354492 52.972771,742.566528 
	C52.416420,738.995300 51.846642,735.862976 51.269951,732.361572 
	C51.202728,731.003479 51.142414,730.014526 51.181187,728.668274 
	C50.895454,725.795166 50.510639,723.279297 50.133133,720.388550 
	C50.083851,719.006470 50.027248,717.999268 50.028191,716.646118 
	C49.435108,710.781189 48.784485,705.262268 48.147953,699.351257 
	C48.099846,697.637817 48.037647,696.316406 48.067307,694.635193 
	C47.993225,688.177429 47.955585,682.071228 47.567406,675.987427 
	C47.475143,674.541443 46.209366,673.170349 45.483368,671.764771 
z"/>
<path fill="#002865" opacity="1.000000" stroke="none" 
	d="
M495.827209,268.837646 
	C501.419098,257.972717 510.571869,250.457108 520.205444,243.568100 
	C542.520935,227.610199 568.179565,220.809479 594.895264,217.453461 
	C623.474426,213.863342 652.008057,214.325836 680.538635,218.788803 
	C717.291931,224.538040 750.924194,237.928085 780.792908,259.935150 
	C815.101929,285.213806 837.615356,319.336853 852.154602,359.052124 
	C861.282654,383.986420 867.929016,409.575073 872.464111,435.709229 
	C873.544983,441.938416 877.177368,445.147217 882.741333,447.320892 
	C909.968079,457.957672 936.246399,470.536835 960.540039,486.909363 
	C985.493469,503.726562 1006.298950,524.975037 1025.267456,548.178101 
	C1030.739990,554.872253 1036.625977,561.274536 1042.757812,567.372864 
	C1052.347778,576.910461 1064.035278,574.123291 1067.604248,561.151733 
	C1069.840576,553.023438 1070.864868,544.493225 1071.743530,536.071411 
	C1076.110107,494.222717 1073.855835,452.574860 1067.551880,411.062439 
	C1062.291992,376.426605 1054.921021,342.255188 1045.040161,308.648621 
	C1034.801270,273.824493 1021.334412,240.342484 1001.800964,209.594589 
	C975.820190,168.697815 941.443542,136.717148 899.073059,113.124931 
	C860.023254,91.381645 818.067383,78.620972 774.346375,70.568451 
	C727.471497,61.935047 680.139099,60.931179 632.884888,63.368225 
	C592.437256,65.454239 552.493896,72.426247 513.861877,85.586281 
	C491.226746,93.296974 469.360352,102.544876 448.784729,114.771713 
	C447.230530,115.695282 445.466187,116.265251 443.547089,116.802650 
	C443.532837,116.101410 443.771057,115.597122 444.009308,115.092834 
	C456.856415,108.182564 469.422791,100.665550 482.637939,94.550629 
	C493.553009,89.499985 505.100861,85.675102 516.613892,82.097122 
	C528.953247,78.262344 541.501465,75.008606 554.103210,72.135872 
	C566.064575,69.409134 578.160095,67.148224 590.294250,65.336777 
	C602.273193,63.548508 614.344849,62.068634 626.428894,61.369457 
	C645.327515,60.275990 664.287415,59.142326 683.190613,59.529015 
	C702.901001,59.932217 722.657410,61.415142 742.241638,63.718636 
	C761.834167,66.023117 781.363831,69.324135 800.681702,73.339745 
	C813.589478,76.022888 826.198730,80.365707 838.722107,84.612801 
	C851.563660,88.967751 864.335754,93.654900 876.766113,99.053596 
	C886.572327,103.312569 895.915588,108.688347 905.285828,113.889839 
	C927.576721,126.263634 947.742004,141.536926 965.609985,159.705215 
	C983.822266,178.223541 999.162537,198.964767 1011.878906,221.624039 
	C1022.858948,241.189468 1032.655151,261.317200 1039.198730,282.833130 
	C1046.140991,305.660126 1053.319702,328.450165 1059.136475,351.572968 
	C1063.460327,368.761475 1066.044922,386.411316 1068.905518,403.937042 
	C1071.470947,419.653778 1073.383545,435.477783 1075.510742,451.264374 
	C1075.820801,453.565063 1075.797363,455.920654 1075.800659,458.251068 
	C1075.830566,478.912140 1076.546753,499.605774 1075.608154,520.223694 
	C1074.895264,535.879883 1074.697754,551.842590 1068.554077,566.791382 
	C1065.125244,575.134033 1053.786987,579.018433 1046.487549,573.572144 
	C1040.966309,569.452576 1035.771484,564.632874 1031.342407,559.359680 
	C1016.057312,541.161743 1000.515869,523.237976 982.625549,507.507538 
	C966.238159,493.098480 948.340698,480.845856 928.722839,471.317566 
	C912.342957,463.361969 895.623352,456.107025 879.077881,448.490356 
	C873.555481,445.948090 870.517578,441.671509 869.302002,435.575409 
	C866.548096,421.764954 863.503296,408.006775 860.281128,394.296814 
	C855.520752,374.041779 848.132263,354.675171 839.280090,335.901642 
	C831.615967,319.647675 822.166626,304.380188 809.873169,291.221313 
	C800.747437,281.453094 791.232605,271.900818 780.939697,263.404907 
	C765.119202,250.346558 746.714294,241.516113 727.655762,234.096695 
	C707.262512,226.157654 686.196960,220.841248 664.335327,219.738663 
	C645.449219,218.786102 626.450500,217.834915 607.610046,218.865753 
	C590.450745,219.804581 573.408264,222.931091 556.861633,228.460297 
	C537.125977,235.055161 519.746094,245.147858 505.201019,260.005249 
	C502.677612,262.582825 500.731842,265.725922 497.925537,268.804016 
	C496.909241,269.021484 496.486603,269.042786 496.004822,269.007446 
	C495.945648,268.950836 495.827209,268.837646 495.827209,268.837646 
z"/>
<path fill="#002159" opacity="1.000000" stroke="none" 
	d="
M871.064880,887.153687 
	C869.681519,895.490295 868.736755,903.927979 866.842834,912.146912 
	C855.611938,960.885681 834.056030,1004.628845 801.823914,1042.858521 
	C788.645203,1058.489258 772.713379,1071.156738 754.766357,1081.190552 
	C752.532715,1082.439453 750.995667,1084.934448 749.135864,1086.851929 
	C751.859863,1087.643677 754.690308,1089.371460 757.290710,1089.075806 
	C774.318359,1087.139404 791.436707,1085.516724 808.260071,1082.371948 
	C839.423889,1076.546509 869.856567,1067.866821 899.240540,1055.794189 
	C943.062073,1037.789673 981.868103,1012.455383 1012.529724,975.965881 
	C1038.454346,945.113770 1056.032959,909.945862 1064.373413,870.270874 
	C1070.628662,840.514771 1073.125854,810.614807 1068.795532,780.428345 
	C1063.776123,745.437439 1050.178101,714.281677 1026.407104,687.753601 
	C1004.967285,663.827148 979.791443,644.392822 952.733948,627.522156 
	C920.090454,607.168518 887.098755,587.323059 853.668396,568.293213 
	C804.883545,540.523071 755.549988,513.717712 706.494385,486.421906 
	C664.427063,463.014526 622.260681,439.777924 580.454773,415.911072 
	C558.616211,403.443481 537.162537,390.207367 518.362244,373.228516 
	C502.529907,358.930054 489.428162,342.759979 483.994934,321.578156 
	C480.646851,308.525421 481.957397,295.810120 488.079224,283.047241 
	C488.995819,281.349792 489.501831,280.181702 490.007843,279.013580 
	C490.007843,279.013580 489.995117,278.998779 490.244812,278.896729 
	C491.136078,278.525055 491.777679,278.255432 492.419250,277.985809 
	C490.411987,284.112030 488.170502,290.173065 486.443634,296.377319 
	C482.147034,311.814117 486.339203,326.010315 493.738770,339.420532 
	C507.176239,363.773132 528.619995,379.965332 551.291687,394.774231 
	C561.842407,401.665771 572.338806,408.684998 583.245117,414.978577 
	C607.461914,428.953156 631.883606,442.575104 656.293640,456.211975 
	C680.340088,469.645721 704.476257,482.918762 728.571289,496.265564 
	C759.449646,513.369812 790.363403,530.410645 821.192566,547.603210 
	C849.141663,563.189697 877.197510,578.600220 904.842468,594.712463 
	C936.962524,613.432861 968.470642,633.193848 997.449463,656.610291 
	C1018.874390,673.922791 1038.056885,693.608337 1050.872192,718.174927 
	C1058.180176,732.184387 1064.229492,747.267517 1068.073608,762.563782 
	C1073.123047,782.655701 1075.475830,803.544617 1073.529663,824.344299 
	C1071.400269,847.101562 1068.368530,869.695312 1061.479736,891.792053 
	C1054.638184,913.737549 1045.029297,934.174316 1032.651245,953.270325 
	C1021.626892,970.277954 1008.311951,985.491333 993.520264,999.527039 
	C977.244690,1014.970642 959.128784,1027.776245 939.771790,1038.713867 
	C926.548340,1046.185547 912.615234,1052.673584 898.423157,1058.092529 
	C878.803833,1065.583740 858.733582,1071.947632 838.671692,1078.201782 
	C829.673828,1081.006714 820.253723,1082.503662 810.979553,1084.366821 
	C792.397766,1088.099976 773.744812,1091.412842 754.677185,1090.881958 
	C751.416565,1090.791138 746.813354,1092.337891 745.575439,1087.885986 
	C744.318481,1083.366089 748.823364,1081.775146 751.846436,1080.083008 
	C774.288147,1067.521362 792.914795,1050.749390 808.468628,1030.299316 
	C824.750671,1008.891724 837.383301,985.476746 848.086853,960.921265 
	C857.145996,940.138184 863.703918,918.625122 867.271423,896.205933 
	C868.153992,890.659851 869.521240,885.190857 870.953796,879.705200 
	C871.182922,882.200562 871.123901,884.677124 871.064880,887.153687 
z"/>
<path fill="#00235C" opacity="1.000000" stroke="none" 
	d="
M167.073486,114.206779 
	C159.160629,120.283760 151.093811,126.171799 143.362991,132.472168 
	C117.203087,153.791672 96.738518,179.595459 80.581123,209.319046 
	C61.313564,244.764206 51.571178,282.393066 49.491611,322.458954 
	C47.722095,356.551361 51.180702,389.713318 65.154106,421.153687 
	C78.282204,450.692047 99.729736,473.431000 125.210846,492.731140 
	C160.246841,519.268372 198.503860,540.684387 236.451065,562.552917 
	C270.217010,582.011780 304.457977,600.644775 338.303497,619.967590 
	C377.792206,642.512329 417.166626,665.260803 456.426208,688.202271 
	C487.630737,706.436829 518.758545,724.815491 549.594666,743.663330 
	C570.089661,756.190308 589.374756,770.580627 606.838867,787.095459 
	C624.744629,804.028137 636.951904,824.001648 635.612244,849.946960 
	C634.901733,863.708252 630.319580,875.957947 620.718750,886.721191 
	C619.550354,887.100159 618.931641,887.204285 618.276855,887.271362 
	C618.240906,887.234253 618.168213,887.160828 618.168213,887.160828 
	C620.711792,883.087280 623.296753,879.038757 625.790833,874.935181 
	C631.802368,865.044006 632.605713,854.224487 632.490417,842.888672 
	C632.263489,820.574768 620.690979,804.350525 605.551208,789.897705 
	C582.744507,768.125671 556.779297,750.582336 529.896545,734.346497 
	C508.044342,721.148865 486.138428,708.036499 464.116821,695.124146 
	C440.230835,681.118591 416.197174,667.364441 392.201843,653.545959 
	C374.254486,643.210327 356.333588,632.825684 338.278198,622.681274 
	C315.894928,610.105286 293.336792,597.840576 270.945984,585.277832 
	C254.793884,576.215332 238.732376,566.987183 222.738007,557.648682 
	C204.169342,546.807129 185.408966,536.247742 167.304871,524.669800 
	C149.900650,513.539551 132.584076,502.080841 116.389366,489.296539 
	C93.389702,471.140381 74.702446,448.943726 62.461372,422.036469 
	C53.725250,402.833435 48.975201,382.401733 47.504585,361.383026 
	C46.508667,347.148987 45.505302,332.755768 46.538620,318.582001 
	C47.692142,302.759430 50.271038,286.901367 53.862617,271.438049 
	C56.996689,257.944489 61.970505,244.815186 66.897659,231.815308 
	C75.059525,210.280960 87.115509,190.726227 100.705109,172.338409 
	C112.001877,157.052994 125.186775,143.181259 140.418762,131.562256 
	C148.982315,125.029961 157.864899,118.915924 166.852478,112.958672 
	C167.091965,113.604851 167.082718,113.905815 167.073486,114.206779 
z"/>
<path fill="#002460" opacity="1.000000" stroke="none" 
	d="
M296.993530,1069.128296 
	C306.543182,1071.372925 316.001801,1074.177734 325.661133,1075.747559 
	C347.001953,1079.216064 368.370483,1082.800659 389.866943,1084.936890 
	C408.057098,1086.744629 426.447937,1087.278687 444.741272,1087.149170 
	C484.813110,1086.865601 524.399963,1082.466187 563.492188,1072.967041 
	C597.209778,1064.774170 629.492432,1053.140747 660.198975,1037.143921 
	C690.447266,1021.385803 716.121948,999.969055 737.509521,973.380188 
	C750.762451,956.904175 762.523926,939.437622 768.531067,919.030640 
	C780.288818,879.087769 784.030518,838.970459 768.145020,798.995056 
	C761.152832,781.399353 750.598083,766.116516 737.933472,752.247620 
	C718.823730,731.320557 697.082947,713.373352 672.796143,698.918335 
	C627.011597,671.668457 580.787781,645.155884 534.714294,618.392395 
	C514.263794,606.513000 493.723663,594.787720 473.256866,582.936096 
	C471.111877,581.694031 469.188568,580.068970 467.324524,578.345581 
	C467.998901,578.043274 468.511108,578.017090 469.023315,577.990906 
	C474.535187,580.980774 480.108582,583.863098 485.548370,586.978882 
	C510.476593,601.257080 535.303589,615.713135 560.291443,629.885803 
	C581.049622,641.659668 602.300659,652.594849 622.759155,664.859375 
	C651.619751,682.160706 680.753540,699.103638 707.308594,719.990601 
	C723.974182,733.099121 738.767151,747.926208 751.660339,764.812866 
	C763.744507,780.640015 772.499084,798.074402 777.135376,817.239197 
	C782.463135,839.263000 782.895691,861.752441 778.792908,884.093262 
	C776.312805,897.597778 773.840820,911.241028 769.582520,924.237854 
	C766.221436,934.496155 760.908752,944.354248 755.066650,953.497986 
	C748.238831,964.184509 740.141541,974.101440 732.150818,983.993469 
	C720.521729,998.389404 706.467773,1010.377563 691.581482,1021.143860 
	C676.301453,1032.194946 659.725830,1041.262085 642.425598,1048.947388 
	C620.426270,1058.720215 597.883484,1067.004517 574.638062,1073.161377 
	C561.200867,1076.720215 547.541992,1079.775635 533.795471,1081.757446 
	C511.507996,1084.970703 489.124420,1088.160400 466.673004,1089.405762 
	C445.790253,1090.564087 424.743622,1089.668823 403.811279,1088.734253 
	C388.420471,1088.047119 372.984741,1086.546631 357.773468,1084.124512 
	C339.314240,1081.185181 321.064484,1076.922485 302.741943,1073.145874 
	C300.988678,1072.784424 299.362000,1071.808960 297.338470,1070.689453 
	C296.998108,1069.882935 296.995819,1069.505615 296.993530,1069.128296 
z"/>
<path fill="#002664" opacity="1.000000" stroke="none" 
	d="
M617.965210,889.981689 
	C613.412109,894.293457 609.210815,899.069153 604.244385,902.835938 
	C583.806824,918.336609 560.080872,926.127319 535.167725,930.012329 
	C497.799652,935.839539 460.372070,935.216736 423.468475,926.559082 
	C383.316284,917.139343 347.808899,898.558411 317.163116,870.653992 
	C289.809906,845.747559 269.176086,816.328674 258.908051,780.815491 
	C252.503021,758.662964 249.088196,735.623474 244.823532,712.889648 
	C243.711319,706.960754 241.243439,703.517944 235.718643,701.125122 
	C209.266403,689.668457 183.011124,677.783875 159.016068,661.538391 
	C135.277512,645.466614 114.587570,625.984985 95.176460,605.011536 
	C87.154388,596.343750 78.929558,587.825378 70.311592,579.757446 
	C60.717300,570.775574 50.861053,574.035461 48.568291,586.902222 
	C47.348015,593.750305 47.008907,600.817749 46.926201,607.793945 
	C46.714848,625.621277 46.910023,643.453125 46.832790,661.282715 
	C46.822220,663.722717 46.185654,666.159973 45.601971,668.889771 
	C45.226879,664.859253 44.964634,660.537292 44.971561,656.215759 
	C45.005989,634.728210 44.990017,613.239136 45.303455,591.755127 
	C45.359875,587.887939 46.323692,583.809753 47.829056,580.233215 
	C51.282627,572.028259 59.306660,568.953308 66.538239,574.193054 
	C75.063126,580.369873 82.692551,587.883850 90.214706,595.319336 
	C101.372704,606.348755 111.462837,618.531677 123.168648,628.914551 
	C136.743652,640.955261 150.989792,652.450867 166.036621,662.557251 
	C179.267899,671.444153 193.819855,678.460693 208.138565,685.601440 
	C219.073090,691.054565 230.670227,695.169189 241.700623,700.447632 
	C244.051346,701.572510 246.368805,704.985535 246.760193,707.631653 
	C249.622452,726.982727 253.065918,746.169250 257.459412,765.268616 
	C261.711273,783.752502 268.013397,801.333191 277.736816,817.353149 
	C285.676208,830.433899 295.045471,842.801025 304.951355,854.492737 
	C315.992065,867.523987 329.071808,878.610352 343.278320,888.241394 
	C360.944672,900.217957 379.700287,909.968872 399.914124,916.994568 
	C419.589233,923.833130 439.808624,928.631958 460.472687,929.753479 
	C480.291260,930.829102 500.251099,929.764404 520.131287,929.107910 
	C538.579224,928.498657 556.225403,923.483948 573.323730,916.963806 
	C587.292053,911.637207 599.949646,903.764709 611.130676,893.694458 
	C612.480530,892.478699 613.923157,891.365845 615.976685,890.094299 
	C617.075500,889.982788 617.520325,889.982239 617.965210,889.981689 
z"/>
<path fill="#002460" opacity="1.000000" stroke="none" 
	d="
M435.883057,120.320625 
	C436.244537,120.295074 436.341644,120.561638 436.086426,120.910477 
	C435.225739,121.863831 434.620270,122.468338 434.014801,123.072845 
	C434.014801,123.072853 434.019165,123.023766 433.753601,123.156601 
	C432.673950,123.949814 431.859833,124.610191 431.045715,125.270569 
	C422.941620,131.905518 414.615540,138.289215 406.771576,145.218643 
	C371.777802,176.132324 347.259186,213.529282 339.066193,260.034485 
	C329.389648,314.960449 343.186584,363.933441 380.311646,405.591461 
	C396.219269,423.441406 415.651825,437.557159 436.294159,449.609039 
	C466.631561,467.321259 497.336426,484.403717 527.845886,501.822449 
	C529.966553,503.033203 531.765869,504.806824 533.894165,506.596619 
	C528.534607,504.370728 522.813049,502.201355 517.491089,499.299225 
	C502.677216,491.221191 487.954407,482.968597 473.337555,474.538940 
	C459.725067,466.688507 445.928864,459.069366 432.883423,450.346588 
	C418.611328,440.803650 404.669830,430.647156 391.380585,419.783844 
	C375.188446,406.547485 362.485077,390.179596 352.984772,371.467621 
	C338.670624,343.274261 331.306732,313.468323 333.463074,281.760040 
	C335.356110,253.923218 342.647614,227.579758 356.533051,203.138977 
	C371.273956,177.192352 389.713623,154.484024 413.507782,136.328323 
	C420.714691,130.829239 428.176483,125.664207 435.883057,120.320625 
z"/>
<path fill="#00245F" opacity="1.000000" stroke="none" 
	d="
M296.660950,1068.981079 
	C296.995819,1069.505615 296.998108,1069.882935 297.002075,1070.543701 
	C289.377106,1068.658936 281.532410,1067.053589 274.171204,1064.200684 
	C260.616302,1058.947510 246.765427,1054.013916 234.093460,1047.031494 
	C215.424561,1036.744629 197.189270,1025.487793 179.673859,1013.339844 
	C160.365143,999.948059 144.581726,982.667175 130.449219,963.842041 
	C117.470047,946.553345 105.288689,928.740601 96.474144,909.010010 
	C88.578415,891.336060 81.180672,873.341248 75.119583,854.974426 
	C69.371094,837.554993 65.135399,819.581055 61.168911,801.644348 
	C57.273739,784.030029 54.542343,766.157898 51.341496,748.391418 
	C51.077618,746.926758 51.129803,745.405212 51.340240,743.466675 
	C52.083347,743.017334 52.521351,743.011414 52.959351,743.005493 
	C54.441715,751.354492 56.070957,759.680420 57.381729,768.056274 
	C64.050179,810.667603 74.196983,852.352356 91.304825,892.067993 
	C105.108864,924.113953 123.191513,953.614685 146.745132,979.472290 
	C184.412186,1020.824036 231.419785,1047.261108 284.106384,1064.436646 
	C288.220917,1065.777954 292.256195,1067.362427 296.660950,1068.981079 
z"/>
<path fill="#00235E" opacity="1.000000" stroke="none" 
	d="
M167.437134,114.123299 
	C167.082718,113.905815 167.091965,113.604851 167.115448,112.851974 
	C177.059296,106.808311 186.666016,100.509628 196.994873,95.792000 
	C212.153961,88.868187 227.720947,82.787773 243.320892,76.895386 
	C254.750320,72.578262 266.329010,68.398857 278.167053,65.479500 
	C297.285156,60.764809 316.589325,56.676033 335.975830,53.227520 
	C347.199951,51.230946 358.728271,50.828949 370.145477,50.131351 
	C372.403687,49.993374 374.779663,51.781918 377.101318,52.682014 
	C375.513641,54.800320 374.342407,57.554832 372.260223,58.917614 
	C366.018555,63.002796 359.123108,66.117271 353.017212,70.376648 
	C333.443695,84.030899 317.832489,101.654076 303.938080,120.868225 
	C299.283295,127.305191 294.957855,133.980301 290.209595,140.752441 
	C289.937347,140.958328 289.924713,140.950409 289.988129,140.589539 
	C290.361420,138.796265 290.671265,137.363892 290.981110,135.931503 
	C290.981110,135.931503 291.030701,135.445374 291.285339,135.030243 
	C292.020935,134.048584 292.501892,133.482071 292.982880,132.915543 
	C300.400146,122.509262 307.279297,111.662811 315.352631,101.793198 
	C329.805756,84.124313 346.709351,69.142975 367.289154,58.729057 
	C368.177429,58.279564 369.140564,57.825638 369.804596,57.123772 
	C370.650330,56.229847 371.226562,55.080883 371.918945,54.041851 
	C370.726746,53.339085 369.499268,51.978848 368.348053,52.040581 
	C361.045715,52.432190 353.704102,52.753811 346.479187,53.808907 
	C319.434326,57.758411 292.655518,63.128231 266.563599,71.335526 
	C235.062958,81.244179 204.254898,92.898834 175.817810,110.060730 
	C173.272171,111.597038 170.479004,112.723183 167.437134,114.123299 
z"/>
<path fill="#00245F" opacity="1.000000" stroke="none" 
	d="
M468.831085,577.709534 
	C468.511108,578.017090 467.998901,578.043274 467.099915,578.093384 
	C456.369141,572.100159 445.857727,566.351135 435.711945,560.016541 
	C403.079620,539.642212 370.904968,518.573608 341.001709,494.273956 
	C311.995697,470.703461 285.903320,444.461273 267.681671,411.375549 
	C257.538147,392.957581 249.004837,373.809418 243.937302,353.288788 
	C243.422638,351.204651 243.337479,349.014465 243.252609,346.582214 
	C244.076340,346.777283 244.700455,347.263641 245.324554,347.750000 
	C245.453842,348.279236 245.583130,348.808441 245.758270,349.918335 
	C246.077133,350.991241 246.350159,351.483490 246.623169,351.975769 
	C250.359619,367.478180 255.626389,382.423340 263.397156,396.380035 
	C270.080933,408.384460 276.396057,420.669220 284.039429,432.047241 
	C296.493652,450.586670 312.140717,466.492065 329.264984,480.713196 
	C344.521118,493.382904 360.456177,505.257385 376.387787,517.083923 
	C388.223114,525.869629 400.298279,534.380188 412.685760,542.362915 
	C430.915405,554.110352 449.519043,565.277405 467.956543,576.702698 
	C468.229156,576.871643 468.413361,577.183167 468.831085,577.709534 
z"/>
<path fill="#00245D" opacity="1.000000" stroke="none" 
	d="
M537.223999,508.302307 
	C539.067932,508.750854 541.228210,509.226135 543.071594,510.264221 
	C581.070312,531.661682 619.356873,552.574097 656.911255,574.727112 
	C694.182617,596.713196 730.955200,619.585632 765.363586,645.992981 
	C780.310791,657.464417 794.604553,669.634094 806.954590,684.698608 
	C807.060120,685.778442 807.032288,686.231689 807.004517,686.684998 
	C798.893250,679.094971 791.028442,671.217834 782.607727,663.988281 
	C772.314758,655.151428 761.886475,646.401550 750.916199,638.441589 
	C736.330627,627.858459 721.316833,617.841064 706.204468,608.015320 
	C692.582336,599.158447 678.675659,590.725891 664.720459,582.397827 
	C646.545410,571.551392 628.295532,560.822266 609.899475,550.356262 
	C589.902161,538.979187 569.665771,528.022827 549.615112,516.738159 
	C545.360352,514.343567 541.457642,511.323212 537.223999,508.302307 
z"/>
<path fill="#00255E" opacity="1.000000" stroke="none" 
	d="
M807.267029,686.917969 
	C807.032288,686.231689 807.060120,685.778442 807.111816,684.981812 
	C813.612793,691.964905 820.638733,698.881775 826.465881,706.692993 
	C845.232849,731.849243 859.258179,759.491943 867.074890,789.969543 
	C870.114624,801.821350 871.698425,814.046570 873.604858,826.559692 
	C872.825439,827.022705 872.386658,827.027710 871.947876,827.032715 
	C869.027649,813.096069 866.653809,799.014221 863.002747,785.271729 
	C860.391968,775.445007 856.804565,765.713074 852.335632,756.583679 
	C845.730896,743.091309 838.360962,729.924500 830.528687,717.100464 
	C825.801453,709.360535 819.596802,702.520569 814.025696,695.299622 
	C811.904053,692.549683 809.697449,689.865295 807.267029,686.917969 
z"/>
<path fill="#00225D" opacity="1.000000" stroke="none" 
	d="
M245.361847,347.377350 
	C244.700455,347.263641 244.076340,346.777283 243.253540,346.151215 
	C241.463486,335.184296 239.174042,324.405762 238.415070,313.520508 
	C236.352859,283.944489 241.872940,255.202148 249.326614,226.763016 
	C250.038681,224.046204 251.074585,221.414246 252.270630,218.239166 
	C253.542892,217.187714 254.504700,216.639969 255.466492,216.092224 
	C252.434494,228.308823 248.762329,240.410736 246.547058,252.773682 
	C244.244263,265.625183 242.661179,278.695953 242.034561,291.731964 
	C241.418091,304.556488 242.165161,317.468781 242.782593,330.320068 
	C243.051178,335.910614 244.491165,341.444885 245.361847,347.377350 
z"/>
<path fill="#00245F" opacity="1.000000" stroke="none" 
	d="
M255.581253,215.724991 
	C254.504700,216.639969 253.542892,217.187714 252.331451,217.860367 
	C259.007294,196.154984 267.207092,174.880630 279.692383,155.162323 
	C279.976929,154.972809 280.061188,155.040863 280.047394,155.393890 
	C280.016083,156.452805 279.998596,157.158691 279.981110,157.864578 
	C275.182526,168.366959 270.289185,178.827469 265.623169,189.388412 
	C263.089508,195.122986 260.942627,201.028412 258.444977,207.407791 
	C258.167542,208.270340 258.075867,208.584610 257.993591,208.901642 
	C257.993591,208.901642 257.982544,208.976685 257.721252,209.226776 
	C256.964417,210.933441 256.468903,212.390030 255.973419,213.846603 
	C255.880951,214.350311 255.788467,214.854034 255.581253,215.724991 
z"/>
<path fill="#002159" opacity="1.000000" stroke="none" 
	d="
M871.963684,827.498657 
	C872.386658,827.027710 872.825439,827.022705 873.592773,827.014038 
	C874.013306,829.607117 874.105225,832.203796 874.143005,835.729126 
	C874.107178,843.896484 874.125549,851.135254 874.143921,858.373962 
	C874.096741,861.952026 874.049561,865.530151 873.748413,869.707031 
	C872.871155,871.010376 872.247864,871.714966 871.624634,872.419556 
	C871.742920,857.601257 871.861206,842.782898 871.963684,827.498657 
z"/>
<path fill="#002664" opacity="1.000000" stroke="none" 
	d="
M45.379768,672.243164 
	C46.209366,673.170349 47.475143,674.541443 47.567406,675.987427 
	C47.955585,682.071228 47.993225,688.177429 47.780861,694.633301 
	C47.020443,694.989136 46.638329,694.987061 46.256210,694.984985 
	C46.208660,694.809204 46.161114,694.633423 46.062912,693.800293 
	C45.933514,691.026489 45.854767,688.910034 45.776020,686.793579 
	C45.609402,682.102905 45.442787,677.412292 45.379768,672.243164 
z"/>
<path fill="#00255E" opacity="1.000000" stroke="none" 
	d="
M871.512207,872.900879 
	C872.247864,871.714966 872.871155,871.010376 873.700012,870.160583 
	C873.092712,875.526978 872.279907,881.038635 871.265991,886.851929 
	C871.123901,884.677124 871.182922,882.200562 871.163818,879.392578 
	C871.190491,877.168213 871.295166,875.275208 871.512207,872.900879 
z"/>
<path fill="#002664" opacity="1.000000" stroke="none" 
	d="
M48.133858,699.743286 
	C48.784485,705.262268 49.435108,710.781189 49.754608,716.643677 
	C49.058491,716.985046 48.693501,716.982849 48.328514,716.980652 
	C48.252090,716.536682 48.175663,716.092773 48.091484,715.061096 
	C47.953674,713.227783 47.823616,711.982178 47.693562,710.736572 
	C47.568584,710.100708 47.443600,709.464783 47.358036,707.981506 
	C47.642921,704.670471 47.888390,702.206909 48.133858,699.743286 
z"/>
<path fill="#00245F" opacity="1.000000" stroke="none" 
	d="
M279.934875,154.938690 
	C281.752716,151.400131 283.612610,147.895721 285.723175,144.531281 
	C285.972748,145.385330 285.971649,146.099411 285.970581,146.813477 
	C285.900360,147.340332 285.830170,147.867203 285.590759,148.899078 
	C285.281982,149.556625 285.145142,149.711655 285.011139,149.869202 
	C285.011139,149.869202 284.957611,149.953262 284.699585,150.160355 
	C283.951935,151.182922 283.462311,151.998413 282.972717,152.813904 
	C282.895447,153.023041 282.818176,153.232193 282.361816,153.833862 
	C281.342224,154.497864 280.701721,154.769363 280.061188,155.040863 
	C280.061188,155.040863 279.976929,154.972809 279.934875,154.938690 
z"/>
<path fill="#002865" opacity="1.000000" stroke="none" 
	d="
M492.568420,277.704376 
	C491.777679,278.255432 491.136078,278.525055 490.254089,278.898804 
	C491.784607,275.758179 493.555542,272.513367 495.576843,269.053101 
	C495.827209,268.837646 495.945648,268.950836 495.979065,269.347229 
	C495.983704,270.426453 495.954926,271.109314 495.926147,271.792175 
	C495.864166,272.016388 495.802216,272.240570 495.559570,272.917572 
	C495.243683,273.527283 495.120850,273.693298 495.010437,273.868500 
	C495.010437,273.868500 494.955841,273.950470 494.684265,274.150116 
	C493.925720,275.176666 493.438782,276.003540 492.951843,276.830444 
	C492.873779,277.027924 492.795715,277.225433 492.568420,277.704376 
z"/>
<path fill="#00245F" opacity="1.000000" stroke="none" 
	d="
M48.147949,699.351257 
	C47.888390,702.206909 47.642921,704.670471 47.282207,707.501221 
	C46.831913,703.879517 46.496868,699.890686 46.209015,695.443481 
	C46.638329,694.987061 47.020443,694.989136 47.689003,694.993103 
	C48.037647,696.316406 48.099846,697.637817 48.147949,699.351257 
z"/>
<path fill="#002664" opacity="1.000000" stroke="none" 
	d="
M52.972778,742.566528 
	C52.521351,743.011414 52.083347,743.017334 51.316902,743.029663 
	C50.988461,743.036194 50.950623,743.025818 50.943493,742.771362 
	C50.863743,741.915833 50.791126,741.314819 50.718510,740.713745 
	C50.511253,738.798645 50.304001,736.883545 50.249413,734.280273 
	C50.693680,733.304932 50.985279,733.017822 51.276871,732.730652 
	C51.846642,735.862976 52.416420,738.995300 52.972778,742.566528 
z"/>
<path fill="#002664" opacity="1.000000" stroke="none" 
	d="
M50.125824,720.763428 
	C50.510639,723.279297 50.895454,725.795166 50.882847,728.663330 
	C50.088623,729.013489 49.691822,729.011353 49.295025,729.009155 
	C49.222553,727.932556 49.150082,726.855957 49.187424,725.039490 
	C49.573433,723.120911 49.849628,721.942139 50.125824,720.763428 
z"/>
<path fill="#00245F" opacity="1.000000" stroke="none" 
	d="
M50.133137,720.388550 
	C49.849628,721.942139 49.573433,723.120911 49.170761,724.634827 
	C48.778652,722.585632 48.513016,720.201233 48.287945,717.398743 
	C48.693501,716.982849 49.058491,716.985046 49.697063,716.989624 
	C50.027248,717.999268 50.083851,719.006470 50.133137,720.388550 
z"/>
<path fill="#00235E" opacity="1.000000" stroke="none" 
	d="
M286.237000,146.632050 
	C285.971649,146.099411 285.972748,145.385330 285.972260,144.312622 
	C285.970703,143.953979 286.004456,143.991592 286.243103,143.817184 
	C287.629425,142.745316 288.777069,141.847870 289.924713,140.950409 
	C289.924713,140.950409 289.937347,140.958328 289.941467,140.957336 
	C288.798218,142.787766 287.650787,144.619186 286.237000,146.632050 
z"/>
<path fill="#00245F" opacity="1.000000" stroke="none" 
	d="
M49.243095,729.386475 
	C49.691822,729.011353 50.088623,729.013489 50.783760,729.020569 
	C51.142414,730.014526 51.202728,731.003479 51.269966,732.361572 
	C50.985279,733.017822 50.693680,733.304932 50.181610,733.803955 
	C49.704483,732.598572 49.447826,731.181213 49.243095,729.386475 
z"/>
<path fill="#00225D" opacity="1.000000" stroke="none" 
	d="
M256.199890,213.609070 
	C256.468903,212.390030 256.964417,210.933441 257.684906,209.237671 
	C257.415375,210.456146 256.920837,211.913849 256.199890,213.609070 
z"/>
<path fill="#00245F" opacity="1.000000" stroke="none" 
	d="
M45.639450,687.121399 
	C45.854767,688.910034 45.933514,691.026489 46.006786,693.532959 
	C45.835163,691.765015 45.669022,689.607117 45.639450,687.121399 
z"/>
<path fill="#002460" opacity="1.000000" stroke="none" 
	d="
M443.671326,115.138428 
	C443.771057,115.597122 443.532837,116.101410 443.181763,116.862915 
	C443.068878,117.120132 443.031403,117.073639 442.770508,117.194847 
	C441.950226,117.621269 441.390869,117.926483 440.831482,118.231689 
	C440.466461,118.250275 440.101471,118.268860 439.467773,118.230515 
	C440.577179,117.177071 441.955261,116.180550 443.671326,115.138428 
z"/>
<path fill="#00235E" opacity="1.000000" stroke="none" 
	d="
M280.047394,155.393890 
	C280.701721,154.769363 281.342224,154.497864 282.226135,154.139587 
	C281.793823,155.202988 281.118073,156.353195 280.211731,157.683990 
	C279.998596,157.158691 280.016083,156.452805 280.047394,155.393890 
z"/>
<path fill="#00245F" opacity="1.000000" stroke="none" 
	d="
M47.649513,711.029297 
	C47.823616,711.982178 47.953674,713.227783 48.052143,714.725464 
	C47.882195,713.758972 47.743832,712.540527 47.649513,711.029297 
z"/>
<path fill="#002460" opacity="1.000000" stroke="none" 
	d="
M438.834351,118.243286 
	C438.413300,118.889084 437.685577,119.551613 436.645142,120.223862 
	C437.064178,119.575722 437.795929,118.917870 438.834351,118.243286 
z"/>
<path fill="#00235C" opacity="1.000000" stroke="none" 
	d="
M617.984375,889.985779 
	C617.520325,889.982239 617.075500,889.982788 616.296814,889.983521 
	C616.525452,889.156982 617.087891,888.330322 617.909302,887.332214 
	C618.168213,887.160828 618.240906,887.234253 618.218994,887.598755 
	C618.124817,888.631531 618.052490,889.299805 617.980225,889.968018 
	C617.980225,889.968018 618.003479,889.989868 617.984375,889.985779 
z"/>
<path fill="#002159" opacity="1.000000" stroke="none" 
	d="
M493.180206,276.641846 
	C493.438782,276.003540 493.925720,275.176666 494.636749,274.163239 
	C494.376770,274.802216 493.892670,275.627716 493.180206,276.641846 
z"/>
<path fill="#002159" opacity="1.000000" stroke="none" 
	d="
M496.169556,271.624756 
	C495.954926,271.109314 495.983704,270.426453 496.038269,269.403839 
	C496.486603,269.042786 496.909241,269.021484 497.649658,268.994019 
	C497.449280,269.811035 496.931122,270.634186 496.169556,271.624756 
z"/>
<path fill="#00235E" opacity="1.000000" stroke="none" 
	d="
M283.208069,152.638672 
	C283.462311,151.998413 283.951935,151.182922 284.650452,150.168640 
	C284.387329,150.801056 283.915375,151.632263 283.208069,152.638672 
z"/>
<path fill="#00225D" opacity="1.000000" stroke="none" 
	d="
M246.591400,351.716553 
	C246.350159,351.483490 246.077133,350.991241 245.796799,350.326599 
	C246.046204,350.588623 246.302917,351.022980 246.591400,351.716553 
z"/>
<path fill="#00245F" opacity="1.000000" stroke="none" 
	d="
M50.643024,740.935791 
	C50.791126,741.314819 50.863743,741.915833 50.952991,742.755005 
	C50.835594,742.381348 50.701569,741.769531 50.643024,740.935791 
z"/>
<path fill="#00225D" opacity="1.000000" stroke="none" 
	d="
M258.133179,208.783859 
	C258.075867,208.584610 258.167542,208.270340 258.318115,207.813690 
	C258.335968,208.001083 258.304352,208.333572 258.133179,208.783859 
z"/>
<path fill="#002159" opacity="1.000000" stroke="none" 
	d="
M495.157379,273.791901 
	C495.120850,273.693298 495.243683,273.527283 495.482788,273.257935 
	C495.598114,273.387756 495.503998,273.577698 495.157379,273.791901 
z"/>
<path fill="#00235E" opacity="1.000000" stroke="none" 
	d="
M285.158569,149.796570 
	C285.145142,149.711655 285.281982,149.556625 285.526428,149.292496 
	C285.617371,149.418564 285.508942,149.599564 285.158569,149.796570 
z"/>
<path fill="#00255E" opacity="1.000000" stroke="none" 
	d="
M874.333618,858.031128 
	C874.125549,851.135254 874.107178,843.896484 874.112244,836.156494 
	C874.264954,842.999573 874.394165,850.343994 874.333618,858.031128 
z"/>
<path fill="#002865" opacity="1.000000" stroke="none" 
	d="
M489.783020,279.245239 
	C489.501831,280.181702 488.995819,281.349792 488.282227,282.761230 
	C488.569153,281.828674 489.063690,280.652771 489.783020,279.245239 
z"/>
<path fill="#002865" opacity="1.000000" stroke="none" 
	d="
M434.257507,123.006081 
	C434.620270,122.468338 435.225739,121.863831 436.081024,121.052231 
	C435.720642,121.543198 435.110443,122.241257 434.257507,123.006081 
z"/>
<path fill="#002865" opacity="1.000000" stroke="none" 
	d="
M431.332336,125.130043 
	C431.859833,124.610191 432.673950,123.949814 433.777588,123.162392 
	C433.251007,123.686737 432.434967,124.338127 431.332336,125.130043 
z"/>
<path fill="#002865" opacity="1.000000" stroke="none" 
	d="
M441.057587,118.221390 
	C441.390869,117.926483 441.950226,117.621269 442.796539,117.181946 
	C442.483551,117.435585 441.883606,117.823341 441.057587,118.221390 
z"/>
<path fill="#00245F" opacity="1.000000" stroke="none" 
	d="
M289.988129,140.589539 
	C288.777069,141.847870 287.629425,142.745316 286.220703,143.816010 
	C287.460754,141.443085 288.961914,138.896912 290.722107,136.141113 
	C290.671265,137.363892 290.361420,138.796265 289.988129,140.589539 
z"/>
<path fill="#002664" opacity="1.000000" stroke="none" 
	d="
M618.242798,889.814575 
	C618.052490,889.299805 618.124817,888.631531 618.255005,887.635864 
	C618.931641,887.204285 619.550354,887.100159 620.481323,886.959106 
	C620.030823,887.835083 619.268127,888.748047 618.242798,889.814575 
z"/>
<path fill="#00245F" opacity="1.000000" stroke="none" 
	d="
M292.748260,133.074951 
	C292.501892,133.482071 292.020935,134.048584 291.324829,134.789124 
	C291.577698,134.386871 292.045654,133.810608 292.748260,133.074951 
z"/>
</svg>