
<svg xmlns="http://www.w3.org/2000/svg" viewBox="0 0 1024 512">
  <path d="M512.5 0.5C459.1 0.5 415.8 14.5 384.3 38.5C352.9 62.4 333.5 97.8 333.5 137.5C333.5 164.6 343.3 189.9 360.1 211.1C376.9 232.3 400.6 249.3 428.5 260.5C422.6 264 417.2 268.1 412.5 272.5C414.2 275.1 416.1 277.8 418.5 280.5C426.1 272.4 435.1 266.4 444.5 262.5C463.7 269.7 485.7 274.5 509.5 274.5C511.5 274.5 513.5 274.4 515.5 274.5C564 275.6 606.3 258.3 637.1 232.5C667.9 206.8 687.5 172.8 687.5 137.5C687.5 98.4 667.8 63.2 636.1 39.2C604.4 15.1 561 0.5 512.5 0.5ZM512.5 5.5C560.1 5.5 602.4 19.9 633.1 43.2C663.7 66.5 682.5 100.2 682.5 137.5C682.5 171.4 663.8 204.2 633.9 229.2C604 254.1 562.9 271.5 515.5 270.5C513.5 270.4 511.6 270.5 509.5 270.5C486.3 270.5 464.9 265.7 446.5 258.5C439.4 257.5 432.7 258.2 426.5 260.5C414.8 265 405.3 273 398.5 280.5C394.7 275.5 391.3 270.2 388.5 264.5C394.7 262.7 400.4 259.6 405.5 255.5C402.9 254.6 400.2 253.8 397.5 252.5C391.1 249.2 385.2 245.2 379.5 240.5C381.6 241.8 383.7 243 386.1 244.1C392.9 247.4 400.2 250.2 407.5 252.5C403.5 248.5 399.9 244.2 396.5 239.5C392.7 236.3 389.1 232.8 385.5 229.5C388.3 229.7 391 230.3 394.1 231.1C399.4 232.3 404.7 232.9 410.5 232.5C406.5 227.2 402.6 221.7 399.5 215.5C398.2 213.2 396.9 210.9 395.5 208.5C398 208.2 400.4 208.2 403.1 208.5C408.4 208.9 413.7 209.9 419.5 209.5C416.5 201.8 413.5 193.7 412.5 184.5C412.3 181.8 412.1 179.3 412.1 176.5C415.4 176.9 418.1 177.2 421.1 177.5C427.1 178.3 432.7 179.2 438.5 179.5C437.5 176.2 436.6 172.7 435.9 169.5C434.7 163.5 433.9 157.4 433.5 151.5C434.2 151.5 434.8 151.6 435.5 151.5C439.2 151.1 442.9 150.7 446.5 150.5C452.8 150.3 459.1 149.9 465.5 150.5C463.8 146.5 462.2 142.4 460.8 138.5C458.3 131.8 456.4 125.1 455.5 118.5C457.5 118.2 459.5 118.1 461.5 117.5C467.5 116.7 473.5 115.9 479.5 115.5C486.5 114.9 493.4 114.9 500.5 114.5C501.2 112.2 502.3 110.1 502.9 107.6C504.3 103.5 505.4 99.5 506.5 95.5C507.8 90.2 508.9 84.9 509.5 79.5C509.8 75.8 510.2 72.2 510.5 68.5C511.8 70.5 512.8 72.6 513.9 74.5C516.3 79.5 518.6 84.5 520.5 89.5C523.5 97.5 525.9 105.5 527.5 113.5C528.2 117.8 528.8 122.2 529.5 126.5C532.2 126.8 534.8 127.1 537.5 127.5C543.8 127.9 549.8 129 556.1 129.1C560.4 129.3 564.6 129.5 568.9 129.5C571.2 129.5 573.4 129.4 575.5 129.5C576.5 129.5 576.7 129.7 577.5 129.5C578.2 129.7 578.8 129.5 579.5 129.5C578.2 124.2 576.3 119 574.5 113.5C572.9 108.8 570.6 104.2 568.5 99.5C566.8 96.2 565.2 92.7 563.5 89.5C566.5 89.2 569.5 89.2 572.5 88.5C579.2 87.2 585.9 85.9 592.5 85.5C602.8 85.2 613.1 84.8 623.5 86.5C623.2 83.5 622.9 80.6 622.5 77.5C621.9 71.2 620.9 64.9 618.5 59.5C613.2 58.2 607.9 57 602.5 56.5C593.5 56.2 584.5 55.9 575.5 55.5C574.9 55.2 574.5 54.8 574.5 54.5C576.5 49.8 579.2 45.6 581.5 40.6C584.5 35.9 587.6 31.3 590.5 26.5C585.5 25.8 580.6 24.9 575.5 24.5C567.2 23.9 558.9 23.9 550.5 23.5C548.9 21.5 547.2 19.6 545.5 17.5C541.5 13.5 537.2 9.9 533.5 5.5C528.9 7.2 523.9 8.3 519.5 9.5C512.5 10.9 505.6 12.2 498.5 12.5C496.9 14.5 495.2 16.4 493.5 18.5C490.5 21.5 487.9 24.9 484.5 27.5C489.8 29.8 494.9 32.6 500.5 35.1C508.5 38.1 516.6 40.9 524.5 42.5C526.2 42.8 527.8 43.1 529.5 43.5C529.9 49.5 529.9 55.5 529.5 61.5C528.9 71.2 527.6 80.9 525.5 90.5C524.9 93.2 524.2 95.8 523.5 98.5C520.8 98.2 518.2 97.8 515.5 97.5C509.2 97.2 502.9 96.9 496.5 96.5C489.2 96.2 481.8 95.9 474.5 95.5C477.2 101.8 479.9 108.2 483.5 113.9C484.9 115.9 486.2 117.9 487.5 119.9C486.9 119.9 486.5 119.9 486.1 120.1C484.4 120.7 482.7 121 481.1 121.5C477.4 122.8 473.8 123.8 470.1 124.5C467.4 125.9 464.8 127.1 462.1 128.5C460.1 129.5 458 130.4 456.1 131.5C458.7 137.8 461.4 144.2 465.1 149.5C467.4 153.2 469.8 156.7 472.5 159.9C470.9 159.9 469.2 159.9 467.5 159.5C460.5 159.2 453.5 158.2 446.5 158.5C442.2 158.9 437.8 159.2 433.5 159.5C435.8 166.8 438.2 174.1 441.5 181.1C443.8 186.1 446.2 190.9 449.5 195.5C447.2 195.5 445.1 195.2 442.9 195.1C436.5 194.7 430.2 193.7 423.9 193.5C420.5 193.3 417.2 193.1 413.9 193.1C417.9 201.7 422.3 210.4 427.5 218.5C429.9 222.2 432.5 225.7 435.5 228.9C433.5 228.9 431.6 228.9 429.5 228.5C420.5 227.2 411.6 225.3 402.5 224.5C401.5 224.5 400.5 224.5 399.5 224.5C408.5 237.2 419.5 249.2 432.5 257.5C449.7 254.5 466.3 250.4 481.5 244.1C504.2 235.4 523.9 223.2 538.5 209.5C553.2 195.7 562.9 179.4 562.5 164.5C562.5 152.2 557.1 140.5 547.5 131.1C538 121.7 523.9 114.6 507.5 113.5C488.5 112.5 471.7 118.3 459.9 129.6C448.2 140.9 441.5 156.8 441.5 174.5C441.5 189.8 446.8 201.2 455.5 210.1C464.2 219.1 476.4 224.5 489.5 224.5C499.2 224.5 508.1 222.5 515.9 217.9C523.7 213.3 530.5 206.2 533.5 195.5C535.5 188.5 535.5 181.1 534.1 174.5C532.7 167.8 529.6 161.9 525.9 156.5C518.2 145.8 506.2 138.5 493.5 138.5C488.5 138.5 483.8 139.2 479.5 140.5C475.2 141.9 471.5 143.8 468.1 146.1C465.4 147.7 463.1 149.8 460.9 151.9C458.8 153.7 456.9 155.5 455.1 157.5C460.7 160.8 465.6 165.1 469.5 169.9C473.5 174.6 476.5 179.9 478.5 185.5C486.5 185.5 494.9 182.3 500.9 176.9C507 171.6 510.5 164.1 510.5 155.5C510.5 150.2 508.9 145.1 506.1 140.9C503.3 136.7 499.2 133.5 494.5 131.5C487.2 128.5 477.7 129.2 470.5 134.1C466.9 136.7 464.1 139.9 462.1 143.6C460.1 147.3 459.5 151.5 459.5 155.5C459.5 159.8 460.9 163.9 463.5 167.1C466.1 170.3 469.5 172.5 474.1 173.5C473.7 171.5 473.5 169.5 473.5 167.5C473.5 163.2 474.8 158.9 477.5 156.1C480.2 153.2 484.2 151.5 488.5 151.5C492.8 151.5 496.9 153.3 499.5 156.1C502.1 158.9 503.5 163.2 503.5 167.5C503.5 171.2 502.6 174.6 500.5 177.5C499.5 179.2 498.2 180.6 496.9 181.9C494.5 183.9 491.7 185.5 488.5 185.5C488.5 185.5 488.5 185.5 488.5 185.5C488.5 185.5 489.5 187.5 488.5 185.5ZM514.1 18.1C516.1 20.7 518.2 23.3 520.1 25.9C523.4 28.9 526.9 31.7 530.5 34.5C528.2 34.2 525.8 33.8 523.5 33.5C517.5 32.2 511.5 31.3 505.5 29.5C502.9 28.7 500.5 27.7 497.9 26.5C496.7 25.9 495.8 25.1 494.5 24.5C494.5 21.5 493.5 19.2 493.5 16.5C493.8 16.5 494.2 16.5 494.5 16.5C495.5 16.2 496.6 16.2 497.5 15.9C503.1 16.2 508.6 16.9 514.1 18.1ZM526.5 15.1C522.5 15.8 518.5 16.6 514.5 17.5C512.5 17.9 510.5 18.2 508.5 18.5C508.8 20.8 509.3 23.2 509.5 25.5C509.9 29.2 510.3 32.8 510.5 36.5C512.2 36.8 513.8 37.1 515.5 37.5C520.8 37.9 526.2 38.9 531.5 39.5C530.5 35.5 529.5 31.5 528.5 27.5C527.8 23.5 527.3 19.3 526.5 15.1ZM507.5 19.5C505.5 19.8 503.5 20.2 501.5 20.5C499.2 20.9 496.9 21.2 494.5 21.5C494.5 22.9 494.9 24.2 494.5 25.6C494.3 27.5 494.1 29.4 493.9 31.1C493.5 35.1 493.2 39.2 492.5 43.1C495.2 44.8 497.8 46.6 500.5 48.5C502.2 49.5 503.8 50.6 505.5 51.9C507.5 53.5 509.6 54.8 511.5 56.5C511.8 50.2 512.3 43.8 512.5 37.5C512.5 31.5 511.5 25.5 507.5 19.5ZM551.5 36.5C547.2 36.9 542.8 37.2 538.5 37.5C532.8 38.2 527.2 38.8 521.5 39.5C521.2 44.2 521.9 48.8 521.5 53.5C521.2 57.2 520.8 60.8 520.5 64.5C524.8 65.8 529.2 67.3 533.5 68.5C540.5 70.9 547.6 72.9 554.5 75.5C554.5 74.5 554.5 73.6 554.5 72.5C554.9 65.5 555.3 58.5 555.5 51.5C555.9 46.5 556.2 41.5 556.5 36.5C554.8 36.5 553.2 36.5 551.5 36.5ZM512.5 40.5C512.5 46.2 512.2 51.8 512.1 57.5C511.7 61.5 511.4 65.5 510.9 69.5C509.5 69.2 508.2 68.8 506.9 68.5C501.2 66.5 495.6 64.6 489.9 62.6C488.6 62.1 487.2 61.6 485.9 61.1C484.5 69.5 482.9 77.8 480.5 86.1C479.5 89.1 478.6 92.1 477.5 95.1C483.8 95.4 490.2 95.8 496.5 96.1C502.8 96.5 509.2 96.8 515.5 97.1C517.8 97.1 520.2 97.4 522.5 97.5C520.5 88.5 518.5 79.5 516.5 70.5C515.5 65.2 513.6 60.5 513.5 54.9C513.5 50.1 513.5 45.3 513.5 40.5C513.1 40.5 512.8 40.5 512.5 40.5ZM519.5 40.5C519.5 45.5 519.9 50.5 520.5 55.5C520.9 60.8 521.2 66.2 521.5 71.5C521.9 73.8 522.2 76.2 522.5 78.5C527.8 78.8 533.2 79.3 538.5 79.5C544.2 79.9 549.8 80.2 555.5 80.5C557.8 80.5 560.2 80.9 562.5 80.5C560.5 77.5 559.5 74.1 557.9 70.9C554.5 65.5 551.9 59.9 547.5 55.1C548.8 55.1 550.2 55.1 551.5 55.5C557.8 55.9 564.2 56.3 570.5 56.5C572.8 56.5 575.2 56.9 577.5 57.5C577.8 53.2 578.3 48.8 578.5 44.5C578.9 40.5 579.3 36.5 579.5 32.5C577.5 32.5 575.5 32.5 573.5 32.5C568.8 32.9 564.2 33.2 559.5 33.5C552.8 34.2 546.2 34.9 539.5 35.5C532.8 35.9 526.2 36.2 519.5 36.5C519.5 37.8 519.5 39.2 519.5 40.5ZM586.5 26.5C584.2 28.5 582.1 30.5 579.9 32.5C576.5 36.2 572.9 39.7 569.5 43.1C573.5 43.4 577.5 43.8 581.5 44.1C584.8 44.4 588.2 44.8 591.5 45.1C592.8 43.4 594.2 41.8 595.5 40.1C598.8 35.4 602.1 30.8 605.5 26.1C599.5 26.1 593.5 26.2 587.5 26.5C587.1 26.5 586.8 26.5 586.5 26.5ZM384.9 50.6C381.5 55.5 377.9 60.5 374.5 65.5C372.5 68.5 371.2 71.5 369.5 74.9C366.2 82.5 363.5 90.2 362.5 98.5C362.2 101.8 362.9 105.2 362.5 108.5C362.2 113.5 362.9 118.5 363.5 123.5C364.5 134.2 366.6 144.8 371.5 154.5C373.9 157.8 376.2 161.2 378.9 164.1C380.9 166.4 383.1 168.7 385.5 170.5C388.2 166.8 390.9 163.3 393.5 159.6C397.5 154.5 401.6 149.4 405.5 144.1C404.2 142.1 402.9 140.1 401.5 138.1C399.9 145.1 397.9 152.1 393.5 158.1C391.9 160.1 390.5 162.4 388.5 164.1C386.5 160.8 384.5 157.4 382.5 154.1C378.9 147.8 375.5 141.1 373.5 134.1C373.5 132.4 373.5 130.8 373.5 129.1C373.2 119.8 373.9 110.4 375.5 101.1C377.5 92.1 380.2 83.1 383.9 74.6C385.5 70.8 387.2 67.3 388.9 63.6C385.9 59.5 384.9 55.5 384.9 50.6ZM396.5 59.5C393.5 63.2 390.5 66.8 387.5 70.5C385.9 72.5 384.2 74.4 382.5 76.5C386.5 85.5 389.5 94.9 393.5 103.9C394.5 106.5 395.5 109.2 396.5 111.9C399.5 107.9 402.5 103.9 405.5 99.9C409.5 93.9 413.5 87.9 417.5 81.9C415.5 79.2 413.6 76.6 411.5 73.9C408.5 69.2 405.5 64.2 402.5 59.5C400.5 59.5 398.5 59.5 396.5 59.5ZM358.5 62.5C360.5 70.5 362.5 78.5 365.5 86.4C366.5 89.4 367.6 92.4 368.5 95.4C368.5 93.1 368.2 90.7 368.5 88.5C368.8 84.5 369.2 80.5 369.5 76.5C369.5 74.9 369.9 73.2 369.5 71.6C369.2 69.5 368.9 67.5 368.5 65.5C367.2 65.5 365.9 65.5 364.5 65.5C362.5 64.5 360.5 63.5 358.5 62.5ZM434.5 79.5C433.2 81.5 431.9 83.5 430.5 85.5C429.2 87.2 427.8 88.8 426.5 90.5C427.2 92.5 427.8 94.5 428.5 96.5C429.5 98.5 430.2 100.5 430.9 102.5C431.9 106.2 433 109.8 433.5 113.5C437.2 113.8 440.9 114.3 444.5 114.5C448.5 114.9 452.5 115.2 456.5 115.5C456.2 113.5 455.8 111.5 455.5 109.5C454.5 102.5 453.5 95.5 452.5 88.5C447.2 85.5 442.9 82.5 438.5 79.5C437.2 79.5 435.9 79.5 434.5 79.5ZM607.5 79.5C605.8 79.8 604.2 80.2 602.5 80.5C598.5 80.9 594.5 81.2 590.5 81.5C590.8 85.5 591.2 89.5 591.5 93.5C592.2 100.5 592.9 107.5 593.5 114.5C594.2 120.5 594.9 126.5 595.5 132.5C601.5 127.5 607.5 122.5 612.5 116.5C615.5 112.8 618.6 109.3 621.5 105.5C618.2 103.8 614.8 102.3 611.5 100.5C608.9 98.2 606.2 95.7 603.5 93.5C605.5 93.5 607.5 93.5 609.5 93.5C614.5 93.9 619.5 94.2 624.5 94.5C626.8 94.5 629.2 94.5 631.5 94.5C631.5 90.5 631.5 86.5 631.5 82.5C631.2 83.2 630.9 83.8 630.5 84.5C626.2 88.5 621.9 92.5 617.5 96.5C614.2 92.5 609.9 87.5 603.5 85.5C608.5 84.5 613.5 83.5 618.5 83.5C619.8 83.5 621.2 83.5 622.5 83.5C622.8 82.2 623.2 80.9 623.5 79.5C620.9 79.5 618.2 79.2 615.5 79.5C612.8 79.5 610.2 79.5 607.5 79.5ZM446.5 120.5C443.2 120.9 439.8 121.2 436.5 121.5C431.2 121.9 425.9 122.2 420.5 122.5C419.2 130.5 417.9 138.5 416.5 146.5C415.9 149.8 415.2 153.2 414.5 156.5C419.5 156.9 424.5 157.2 429.5 157.5C434.2 157.9 438.8 158.2 443.5 158.5C444.8 157.5 446.2 156.5 447.5 155.5C443.5 148.5 439.5 141.5 437.5 133.5C436.5 129.2 436.9 124.8 436.5 120.5C439.8 120.5 443.2 120.5 446.5 120.5ZM454.5 121.9C454.2 125.5 453.9 129.2 453.5 132.9C455.5 137.5 457.6 142.2 459.5 146.9C460.5 149.2 461.6 151.5 462.5 153.9C466.9 149.9 471.2 145.9 475.5 141.9C474.5 141.2 473.6 140.6 472.5 139.9C470.5 138.6 468.9 137.2 466.9 135.9C458.6 131.5 451.6 126.3 454.5 121.9ZM574.5 121.9C572.5 127.5 570.5 133.2 568.5 138.9C566.9 143.2 565.2 147.5 563.5 151.9C567.5 151.9 571.5 151.9 575.5 151.9C575.5 148.5 575.5 145.2 575.5 141.9C575.2 141.5 574.9 141.2 574.5 140.9C576.5 140.9 578.5 141.3 580.5 140.9C583.5 140.5 586.5 140.2 589.5 139.9C587.2 132.9 584.9 125.9 582.5 118.9C581.5 115.9 580.5 112.9 579.5 109.9C577.8 113.5 576.2 117.2 574.5 120.9C574.5 121.2 574.5 121.5 574.5 121.9ZM593.5 122.9C595.5 123.2 596.5 124.5 598.5 124.9C599.8 125.2 601.2 125.5 602.5 125.9C597.9 130.9 593.2 135.9 588.5 140.9C586.8 139.2 585.2 137.6 583.5 135.9C583.5 136.9 583.5 137.9 583.5 138.9C583.9 141.9 584.2 144.9 584.5 147.9C586.2 147.9 587.8 147.9 589.5 147.9C594.5 146.5 599.5 144.9 604.5 142.9C609.9 140.5 613.9 136.2 617.5 131.9C618.5 130.5 619.5 129.2 620.5 127.9C617.5 127.2 614.5 126.6 611.5 125.9C606.9 124.9 602.1 124.5 597.5 122.9C595.5 122.5 593.9 123.2 593.5 122.9ZM412.5 164.9C412.2 169.9 411.9 174.9 411.5 179.9C414.5 179.9 417.5 179.9 420.5 179.9C426.2 179.9 431.8 179.9 437.5 179.9C437.5 178.9 437.5 177.9 437.5 176.9C437.5 173.9 437.5 170.9 437.5 167.9C435.5 167.9 433.5 167.5 431.5 167.9C425.2 168.2 418.8 168.6 412.5 168.9C412.5 167.5 412.5 166.2 412.5 164.9ZM582.5 170.9C582.5 173.5 583.9 175.9 583.5 178.5C583.2 181.9 582.9 185.2 582.5 188.5C585.2 188.9 587.8 189.2 590.5 189.5C595.8 190.2 601.2 190.9 606.5 191.5C608.5 191.5 610.5 191.9 612.5 191.5C612.8 189.9 613.2 188.2 613.5 186.5C614.5 180.8 615.5 175.2 616.5 169.5C611.2 168.5 605.8 167.5 600.5 166.5C594.5 165.5 588.5 164.6 582.5 163.5C582.5 165.9 582.5 168.5 582.5 170.9ZM403.5 195.9C399.2 195.9 394.8 195.9 390.5 195.9C388.8 200.9 387.2 205.9 385.5 210.9C384.9 213.2 384.3 215.6 383.5 217.9C386.8 217.9 390.2 217.9 393.5 217.9C400.2 218.2 406.8 218.6 413.5 218.9C414.8 213.9 416.2 208.9 417.5 203.9C418.5 201.2 419.5 198.6 420.5 195.9C414.8 195.9 409.2 195.9 403.5 195.9ZM379.5 219.9C381.5 225.5 384.2 231.2 386.1 236.9C387.5 239.9 388.8 242.9 390.1 245.9C383.4 245.9 376.8 245.9 370.1 245.9C370.8 247.9 371.1 249.9 371.5 251.9C372.2 254.9 372.9 257.9 373.5 260.9C376.5 260.9 379.5 260.9 382.5 260.9C389.5 260.9 396.5 260.9 403.5 260.9C401.9 255.9 400.2 250.9 398.5 245.9C396.2 239.5 393.9 233.2 391.5 226.9C390.5 223.5 389.5 220.2 388.5 216.9C385.5 217.9 382.5 218.9 379.5 219.9ZM412.9 220.5C412.9 222.9 412.5 225.2 412.5 227.5C417.5 226.8 422.5 226.3 427.5 225.6C429.8 225.5 432.2 225.3 434.5 224.9C431.5 221.2 428.6 217.5 425.5 213.9C424.5 212.5 423.5 211.2 422.5 209.9C419.5 213.5 416.5 217.1 413.5 220.6C413.3 220.6 413.1 220.6 412.9 220.5ZM627.5 220.5C627.9 236.5 624.9 252.5 620.6 268.1C618.5 276.1 616.2 284.1 613.5 291.9C611.5 297.5 609.5 303.2 607.5 308.9C606.5 311.9 605.5 314.9 604.5 317.9C603.8 319.9 603.2 321.9 602.5 323.9C601.2 327.9 599.9 331.9 598.5 335.9C594.5 338.9 590.5 341.9 586.5 344.9C583.5 347.2 580.5 349.6 577.5 351.9C578.5 341.9 579.5 331.9 580.5 321.9C581.5 309.9 582.5 297.9 583.5 285.9C584.2 278.9 584.9 271.9 585.5 264.9C586.2 257.9 586.8 250.9 587.5 243.9C588.2 236.5 588.9 229.2 589.5 221.9C590.2 220.5 590.9 219.2 591.5 217.9C594.2 214.5 596.9 211.2 599.5 207.9C603.5 203.5 607.5 199.2 611.5 194.9C611.5 201.9 611.5 208.9 611.5 215.9C611.5 217.5 611.5 219.2 611.5 220.9C616.9 220.9 622.2 220.9 627.5 220.9C627.5 220.7 627.5 220.6 627.5 220.5ZM403.5 227.9C403.5 230.9 403.5 233.9 403.5 236.9C399.5 236.9 395.5 236.9 391.5 236.9C393.5 240.9 395.5 244.9 397.5 248.9C399.5 248.9 401.5 248.9 403.5 248.9C403.5 247.9 403.5 246.9 403.5 245.9C403.5 241.9 403.5 237.9 403.5 233.9C405.8 233.9 408.2 233.9 410.5 233.9C410.5 231.9 410.5 229.9 410.5 227.9C408.2 227.9 405.8 227.9 403.5 227.9ZM627.5 280.5C627.5 285.5 624.9 290.5 621.5 294.5C619.8 296.5 618.2 298.5 616.5 300.5C616.2 303.5 615.9 306.5 615.5 309.5C614.5 316.5 613.5 323.5 612.5 330.5C609.5 329.5 606.5 328.5 603.5 327.5C604.5 323.8 605.5 320.2 606.5 316.5C608.5 310.5 610.5 304.5 612.5 298.5C613.8 290.5 615.2 282.5 616.5 274.5C619.5 277.5 623.5 280.5 627.5 280.5ZM575.5 268.5C575.5 285.5 575.5 302.5 575.5 319.5C575.5 339.5 575.5 359.5 575.5 379.5C575.5 381.5 575.5 383.5 575.5 385.5C575.5 385.8 575.5 386.2 575.5 386.5C578.8 386.5 582.2 386.5 585.5 386.5C587.2 386.5 588.8 386.5 590.5 386.5C589.5 383.5 588.5 380.5 587.5 377.5C587.2 376.2 586.8 374.8 586.5 373.5C586.2 371.5 585.9 369.5 585.5 367.5C584.8 363.5 584.2 359.5 583.5 355.5C582.8 349.5 582.2 343.5 581.5 337.5C580.5 328.8 579.5 320.2 578.5 311.5C577.8 304.8 577.2 298.2 576.5 291.5C576.2 285.5 575.8 279.5 575.5 273.5C575.5 271.8 575.5 270.2 575.5 268.5ZM515.5 286.5C516.5 292.5 517.5 298.5 518.5 304.5C520.5 314.8 522.5 325.2 524.5 335.5C526.2 344.2 527.9 352.8 529.5 361.5C530.2 366.2 530.9 370.8 531.5 375.5C531.5 372.5 531.5 369.5 531.5 366.5C531.5 360.5 531.5 354.5 531.5 348.5C531.2 340.8 530.9 333.2 530.5 325.5C530.2 318.5 529.9 311.5 529.5 304.5C526.5 306.5 523.5 308.5 520.5 310.5C521.5 307.5 522.5 304.5 523.5 301.5C525.5 295.5 527.5 289.5 529.5 283.5C531.5 276.8 533.5 270.2 535.5 263.5C537.5 256.5 539.5 249.5 541.5 242.5C543.2 244.2 544.9 245.8 546.5 247.5C546.8 248.5 547.2 249.5 547.5 250.5C549.5 256.2 551.6 261.8 553.5 267.5C554.8 271.5 556.2 275.5 557.5 279.5C558.2 278.5 558.9 277.5 559.5 276.5C564.5 273.5 569.5 270.5 573.5 266.5C573.5 258.5 573.5 250.5 573.5 242.5C573.5 241.2 573.5 239.8 573.5 238.5C570.5 238.8 567.5 239.2 564.5 239.5C559.5 240.2 554.5 240.9 549.5 241.5C548.5 241.5 547.5 241.5 546.5 241.5C547.5 239.5 548.5 237.5 549.5 235.5C550.8 232.5 552.2 229.5 553.5 226.5C549.2 226.5 544.8 226.5 540.5 226.5C541.8 228.8 543.2 231.2 544.5 233.5C544.9 235.5 545.2 237.5 545.5 239.5C539.5 240.2 533.5 240.9 527.5 241.5C525.2 241.5 522.8 241.9 520.5 241.5C520.8 239.5 521.2 237.5 521.5 235.5C521.8 234.2 522.2 232.8 522.5 231.5C524.2 231.5 525.8 231.5 527.5 231.5C533.5 231.9 539.5 232.2 545.5 232.5C546.8 231.5 548.2 230.5 549.5 229.5C544.8 224.5 540.2 219.5 535.5 214.5C534.5 213.5 533.5 212.5 532.5 211.5C527.8 214.5 523.2 217.5 518.5 220.5C517.5 221.5 516.5 222.5 515.5 223.5C515.5 223.8 515.5 224.2 515.5 224.5C514.5 240.5 514.5 256.5 512.5 272.5C512.1 276.9 511.7 281.2 511.5 285.5C511.5 285.8 511.5 286.2 511.5 286.5C512.8 286.5 514.2 286.5 515.5 286.5ZM383.5 301.5C383.5 308.5 383.5 315.5 383.5 322.5C383.5 328.5 383.5 334.5 383.5 340.5C383.5 345.5 383.5 350.5 383.5 355.5C383.5 356.8 383.5 358.2 383.5 359.5C388.5 359.5 393.5 359.5 398.5 359.5C397.5 356.5 396.5 353.5 395.5 350.5C393.5 344.2 391.5 337.8 389.5 331.5C387.5 325.2 385.5 318.8 383.5 312.5C383.5 309.8 383.5 307.2 383.5 304.5C384.5 304.2 385.5 303.8 386.5 303.5C390.2 302.9 393.8 302.3 397.5 301.5C393.8 300.9 390.2 300.2 386.5 299.5C385.5 299.5 384.5 299.5 383.5 299.5C383.5 300.2 383.5 300.8 383.5 301.5ZM401.5 303.5C404.5 307.5 407.5 311.5 410.5 315.5C414.5 313.8 418.5 312.2 422.5 310.5C431.5 307.2 440.5 303.8 449.5 300.5C455.5 298.5 461.5 296.5 467.5 294.5C469.8 294.5 472.2 294.5 474.5 294.5C474.5 309.5 474.5 324.5 474.5 339.5C476.5 339.5 478.5 339.5 480.5 339.5C480.5 337.8 480.5 336.2 480.5 334.5C480.5 329.5 480.5 324.5 480.5 319.5C480.5 315.2 480.2 310.8 480.5 306.5C480.5 304.5 480.5 302.5 480.5 300.5C480.8 299.5 481.2 298.5 481.5 297.5C483.5 294.8 485.5 292.2 487.5 289.5C489.5 291.8 491.5 294.2 493.5 296.5C493.5 297.8 493.5 299.2 493.5 300.5C493.5 313.5 493.5 326.5 493.5 339.5C493.5 342.5 493.5 345.5 493.5 348.5C496.5 348.5 499.5 348.5 502.5 348.5C502.5 335.5 502.5 322.5 502.5 309.5C502.2 306.2 501.9 302.8 501.5 299.5C501.2 297.2 500.9 294.8 500.5 292.5C499.2 292.5 497.8 292.5 496.5 292.5C489.5 292.5 482.5 292.5 475.5 292.5C473.8 292.5 472.2 292.5 470.5 292.5C468.5 292.5 466.5 292.5 464.5 292.5C454.8 294.5 445.2 296.5 435.5 298.5C424.5 301.5 413.5 304.5 402.5 307.5C402.2 306.2 401.8 304.8 401.5 303.5ZM546.5 327.5C546.5 330.2 546.5 332.8 546.5 335.5C548.5 335.5 550.5 335.5 552.5 335.5C552.5 341.5 552.5 347.5 552.5 353.5C548.5 353.5 544.5 353.5 540.5 353.5C540.5 355.5 540.5 357.5 540.5 359.5C544.5 359.5 548.5 359.5 552.5 359.5C552.5 362.2 552.5 364.8 552.5 367.5C554.5 367.5 556.5 367.5 558.5 367.5C558.5 364.8 558.5 362.2 558.5 359.5C560.5 359.5 562.5 359.5 564.5 359.5C564.5 357.5 564.5 355.5 564.5 353.5C562.5 353.5 560.5 353.5 558.5 353.5C558.5 347.5 558.5 341.5 558.5 335.5C561.8 335.5 565.2 335.5 568.5 335.5C568.5 332.8 568.5 330.2 568.5 327.5C561.2 327.5 553.8 327.5 546.5 327.5ZM427.5 343.5C429.2 345.8 430.8 348.2 432.5 350.5C433.8 352.5 435.2 354.5 436.5 356.5C440.5 353.5 444.5 350.5 448.5 347.5C448.8 348.5 449.2 349.5 449.5 350.5C450.5 354.2 451.6 357.8 452.5 361.5C453.8 361.5 455.2 361.5 456.5 361.5C460.5 361.5 464.5 361.5 468.5 361.5C468.5 360.5 468.5 359.5 468.5 358.5C468.5 353.5 468.5 348.5 468.5 343.5C471.8 343.5 475.2 343.5 478.5 343.5C478.5 341.2 478.5 338.8 478.5 336.5C475.2 336.5 471.8 336.5 468.5 336.5C468.5 334.5 468.5 332.5 468.5 330.5C468.5 329.5 468.5 328.5 468.5 327.5C470.5 327.5 472.5 327.5 474.5 327.5C474.5 325.2 474.5 322.8 474.5 320.5C470.8 320.5 467.2 320.5 463.5 320.5C460.8 320.5 458.2 320.5 455.5 320.5C450.2 320.5 444.8 320.5 439.5 320.5C439.5 322.8 439.5 325.2 439.5 327.5C442.2 327.5 444.8 327.5 447.5 327.5C447.5 328.8 447.5 330.2 447.5 331.5C447.5 332.2 447.5 332.8 447.5 333.5C446.5 333.5 445.5 333.5 444.5 333.5C441.5 333.5 438.5 333.5 435.5 333.5C433.5 333.5 431.5 333.5 429.5 333.5C429.5 336.8 429.5 340.2 429.5 343.5C428.8 343.5 428.2 343.5 427.5 343.5ZM461.5 327.5C461.5 329.8 461.5 332.2 461.5 334.5C461.5 335.2 461.5 335.8 461.5 336.5C460.5 336.5 459.5 336.5 458.5 336.5C455.8 336.5 453.2 336.5 450.5 336.5C450.5 334.2 450.5 331.8 450.5 329.5C450.5 328.8 450.5 328.2 450.5 327.5C454.2 327.5 457.8 327.5 461.5 327.5ZM457.5 339.5C459.8 339.5 462.2 339.5 464.5 339.5C464.5 344.5 464.5 349.5 464.5 354.5C464.5 355.8 464.5 357.2 464.5 358.5C457.5 358.5 450.5 358.5 443.5 358.5C441.5 355.2 439.5 351.8 437.5 348.5C444.2 345.5 450.8 342.5 457.5 339.5ZM405.5 351.5C408.5 352.5 411.5 353.5 414.5 354.5C416.2 353.2 417.8 351.8 419.5 350.5C422.2 350.5 424.8 350.5 427.5 350.5C427.5 353.5 427.5 356.5 427.5 359.5C427.5 362.5 427.5 365.5 427.5 368.5C421.5 368.5 415.5 368.5 409.5 368.5C407.5 367.5 405.5 366.5 403.5 365.5C403.5 365.9 403.5 366.2 403.5 366.5C403.2 368.5 402.9 370.5 402.5 372.5C404.2 372.5 405.8 372.5 407.5 372.5C414.2 372.5 420.8 372.5 427.5 372.5C429.2 372.5 430.8 372.5 432.5 372.5C432.5 368.5 432.5 364.5 432.5 360.5C432.5 357.2 432.5 353.8 432.5 350.5C432.8 350.5 433.2 350.5 433.5 350.5C433.5 354.5 433.5 358.5 433.5 362.5C433.5 364.2 433.5 365.8 433.5 367.5C435.5 367.5 437.5 367.5 439.5 367.5C439.5 360.5 439.5 353.5 439.5 346.5C437.5 346.5 435.5 346.5 433.5 346.5C433.5 347.8 433.5 349.2 433.5 350.5C431.5 350.5 429.5 350.5 427.5 350.5C424.5 350.5 421.5 350.5 418.5 350.5C414.2 353.5 409.8 356.5 405.5 359.5C405.5 356.8 405.5 354.2 405.5 351.5ZM384.5 360.5C384.5 363.8 384.5 367.2 384.5 370.5C387.5 370.5 390.5 370.5 393.5 370.5C396.5 370.5 399.5 370.5 402.5 370.5C402.5 368.5 402.5 366.5 402.5 364.5C402.5 362.5 402.5 360.5 402.5 358.5C396.5 359.2 390.5 359.9 384.5 360.5ZM502.5 360.5C501.8 362.5 501.2 364.5 500.5 366.5C499.5 370.5 498.5 374.5 497.5 378.5C495.2 383.5 492.8 388.5 490.5 393.5C487.8 399.5 485.2 405.5 482.5 411.5C481.8 412.8 481.2 414.2 480.5 415.5C479.2 414.5 477.8 413.5 476.5 412.5C476.5 411.8 476.5 411.2 476.5 410.5C476.5 403.5 476.5 396.5 476.5 389.5C476.5 385.2 476.5 380.8 476.5 376.5C476.5 375.8 476.5 375.2 476.5 374.5C474.5 374.5 472.5 374.5 470.5 374.5C470.5 376.5 470.5 378.5 470.5 380.5C470.5 399.8 470.5 419.2 470.5 438.5C469.5 442.2 468.5 445.8 467.5 449.5C466.5 453.5 465.5 457.5 464.5 461.5C463.5 465.8 462.5 470.2 461.5 474.5C461.2 476.5 460.9 478.5 460.5 480.5C460.5 480.8 460.5 481.2 460.5 481.5C458.5 480.5 456.5 479.5 454.5 478.5C453.8 477.5 453.2 476.5 452.5 475.5C452.2 472.2 451.9 468.8 451.5 465.5C450.5 458.8 449.5 452.2 448.5 445.5C447.5 440.5 446.5 435.5 445.5 430.5C444.5 423.8 443.5 417.2 442.5 410.5C441.5 403.5 440.5 396.5 439.5 389.5C440.5 392.5 441.5 395.5 442.5 398.5C443.5 401.5 444.5 404.5 445.5 407.5C446.5 410.5 447.5 413.5 448.5 416.5C449.5 419.5 450.5 422.5 451.5 425.5C452.5 428.5 453.5 431.5 454.5 434.5C455.5 437.5 456.6 440.5 457.5 443.5C458.5 443.5 459.5 443.5 460.5 443.5C460.5 444.2 460.5 444.8 460.5 445.5C460.5 448.5 460.5 451.5 460.5 454.5C460.5 456.5 460.5 458.5 460.5 460.5C462.5 460.5 464.5 460.5 466.5 460.5C466.5 456.5 466.5 452.5 466.5 448.5C466.8 446.2 467.2 443.8 467.5 441.5C467.5 441.8 467.5 442.2 467.5 442.5C467.5 453.2 467.5 463.8 467.5 474.5C467.5 476.5 467.5 478.5 467.5 480.5C469.8 480.5 472.2 480.5 474.5 480.5C474.5 472.5 474.5 464.5 474.5 456.5C474.5 449.2 474.5 441.8 474.5 434.5C474.5 424.5 474.5 414.5 474.5 404.5C474.5 394.5 474.5 384.5 474.5 374.5C474.5 374.2 474.5 373.8 474.5 373.5C473.5 373.5 472.5 373.5 471.5 373.5C471.5 379.5 471.5 385.5 471.5 391.5C471.5 397.5 471.5 403.5 471.5 409.5C471.5 411.5 471.5 413.5 471.5 415.5C471.2 415.5 470.8 415.5 470.5 415.5C470.5 414.5 470.5 413.5 470.5 412.5C470.5 407.5 470.5 402.5 470.5 397.5C470.5 394.8 470.6 392.2 470.5 389.5C470.5 386.5 470.5 383.5 470.5 380.5C468.5 380.5 466.5 380.5 464.5 380.5C464.5 382.2 464.5 383.8 464.5 385.5C464.5 389.5 464.5 393.5 464.5 397.5C464.5 398.2 464.5 398.8 464.5 399.5C463.5 399.5 462.5 399.5 461.5 399.5C459.5 399.5 457.5 399.5 455.5 399.5C455.5 401.5 455.5 403.5 455.5 405.5C458.5 405.5 461.5 405.5 464.5 405.5C464.5 412.5 464.5 419.5 464.5 426.5C464.5 429.5 464.5 432.5 464.5 435.5C462.5 435.5 460.5 435.5 458.5 435.5C458.5 433.5 458.5 431.5 458.5 429.5C458.5 427.5 458.5 425.5 458.5 423.5C457.2 423.5 455.8 423.5 454.5 423.5C454.5 424.8 454.5 426.2 454.5 427.5C454.5 429.5 454.5 431.5 454.5 433.5C451.5 434.5 448.5 435.5 445.5 436.5C444.5 435.5 443.5 434.5 442.5 433.5C443.5 432.2 444.5 430.8 445.5 429.5C447.5 427.5 449.5 425.5 451.5 423.5C451.5 423.5 451.5 423.5 451.5 423.1C451.5 422.4 451.5 421.8 451.5 421.1C451.5 419.8 451.5 418.4 451.5 417.1C454.5 417.1 457.5 417.1 460.5 417.1C460.5 416.1 460.5 415.1 460.5 414.1C460.5 411.1 460.5 408.1 460.5 405.1C455.5 405.1 450.5 405.1 445.5 405.1C442.5 405.1 439.5 405.1 436.5 405.1C436.5 407.1 436.5 409.1 436.5 411.1C438.5 411.1 440.5 411.1 442.5 411.1C442.5 413.8 442.5 416.4 442.5 419.1C442.5 421.4 442.5 423.8 442.5 426.1C441.5 426.1 440.5 426.1 439.5 426.1C439.5 429.4 439.5 432.8 439.5 436.1C441.8 436.1 444.2 436.1 446.5 436.1C446.5 438.1 446.5 440.1 446.5 442.1C446.5 442.8 446.5 443.4 446.5 444.1C444.2 444.1 441.8 444.1 439.5 444.1C439.5 445.4 439.5 446.8 439.5 448.1C445.5 448.1 451.5 448.1 457.5 448.1C457.5 444.8 457.5 441.4 457.5 438.1C456.8 438.1 456.2 438.1 455.5 438.1C455.5 439.8 455.5 441.4 455.5 443.1C452.5 443.1 449.5 443.1 446.5 443.1C446.5 441.4 446.5 439.8 446.5 438.1C447.5 438.1 448.5 438.1 449.5 438.1C451.5 438.1 453.5 438.1 455.5 438.1C454.5 425.1 453.5 412.1 452.5 399.1C452.2 394.8 451.9 390.4 451.5 386.1C450.8 378.1 450.2 370.1 449.5 362.1C452.5 362.1 455.5 362.1 458.5 362.1C462.8 362.1 467.2 362.1 471.5 362.1C471.5 363.4 471.5 364.8 471.5 366.1C476.8 366.1 482.2 366.1 487.5 366.1C489.5 366.1 491.5 366.1 493.5 366.1C493.5 365.8 493.5 365.4 493.5 365.1C493.8 363.4 494.2 361.8 494.5 360.1C497.2 360.1 499.8 360.1 502.5 360.1C502.5 360.2 502.5 360.4 502.5 360.5ZM511.5 386.5C509.5 386.5 507.5 386.5 505.5 386.5C505.5 391.5 505.5 396.5 505.5 401.5C505.5 403.5 505.5 405.5 505.5 407.5C507.5 407.5 509.5 407.5 511.5 407.5C511.5 400.5 511.5 393.5 511.5 386.5ZM476.5 388.1C476.5 391.1 476.5 394.1 476.5 397.1C477.5 397.1 478.5 397.1 479.5 397.1C481.5 397.1 483.5 397.1 485.5 397.1C485.5 394.1 485.5 391.1 485.5 388.1C482.5 388.1 479.5 388.1 476.5 388.1ZM442.5 399.1C442.5 400.8 442.5 402.4 442.5 404.1C440.5 404.1 438.5 404.1 436.5 404.1C436.5 402.4 436.5 400.8 436.5 399.1C438.5 399.1 440.5 399.1 442.5 399.1ZM442.5 411.1C442.5 412.1 442.5 413.1 442.5 414.1C440.8 414.1 439.2 414.1 437.5 414.1C437.5 413.1 437.5 412.1 437.5 411.1C439.2 411.1 440.8 411.1 442.5 411.1Z"/>
</svg>
